<?xml version="1.0" standalone="no"?>
<!DOCTYPE svg PUBLIC "-//W3C//DTD SVG 1.1//EN" "http://www.w3.org/Graphics/SVG/1.1/DTD/svg11.dtd">
<svg xmlns:inkscape="http://www.inkscape.org/namespaces/inkscape" xmlns:sodipodi="http://sodipodi.sourceforge.net/DTD/sodipodi-0.dtd" xmlns="http://www.w3.org/2000/svg" xmlns:svg="http://www.w3.org/2000/svg" version="1.1" id="svg1" width="840" height="859" viewBox="0 0 840 859" sodipodi:docname="Email Icon 4.svg" inkscape:version="1.3.2 (091e20e, 2023-11-25, custom)">
  <defs id="defs1"/>
  <sodipodi:namedview id="namedview1" pagecolor="#ffffff" bordercolor="#000000" borderopacity="0.25" inkscape:showpageshadow="2" inkscape:pageopacity="0.0" inkscape:pagecheckerboard="0" inkscape:deskcolor="#d1d1d1" inkscape:zoom="0.94644936" inkscape:cx="505.04551" inkscape:cy="429.5" inkscape:window-width="1920" inkscape:window-height="1009" inkscape:window-x="1912" inkscape:window-y="-8" inkscape:window-maximized="1" inkscape:current-layer="g1"/>
  <g inkscape:groupmode="layer" inkscape:label="Image" id="g1">
    <path style="fill:#000000" d="m 395.6412,846.47158 c -3.025,-0.21696 -13.6,-1.29255 -23.5,-2.39019 C 249.90223,830.52838 138.67306,761.77104 70.457654,657.59292 c -81.23595,-124.06301 -89.99752,-283.41288 -22.87302,-416 C 77.271154,182.95486 118.46824,134.01241 171.52819,94.347069 277.10516,15.422239 416.51395,-8.3952522 543.59222,30.781256 c 64.3057,19.824552 123.5899,55.683013 171.5599,103.769214 68.0182,68.18285 109.2979,154.28908 120.1112,250.54245 3.3397,29.72795 2.371,75.67472 -2.2349,106 -17.0856,112.4923 -77.1753,210.80494 -169.8872,277.95209 -15.9109,11.52352 -34.5223,22.72349 -55,33.09784 -45.8099,23.20803 -91.1906,36.62212 -144.00002,42.56494 -12.57962,1.41563 -57.29957,2.56711 -68.5,1.76379 z M 700.43212,637.45194 c 1.26,-0.33752 2.16,-0.98255 2,-1.4334 -0.2747,-0.77416 -17.4907,-17.35971 -136.7909,-131.78216 -27.225,-26.11185 -53.1,-50.97869 -57.5,-55.25963 l -8.00002,-7.78352 -39.29477,31.98721 c -39.16315,31.88006 -39.30229,31.98122 -41.53999,30.19984 -1.23487,-0.98305 -18.73841,-15.20722 -38.89675,-31.60928 -20.15835,-16.40205 -36.88488,-29.90205 -37.17007,-30 -0.28519,-0.0979 -19.099,17.6369 -41.80847,39.41076 -22.70947,21.77386 -48.03995,46.05446 -56.28995,53.95689 -31.83207,30.49099 -63.51841,60.9049 -75.5,72.46813 -6.875,6.63495 -16.45419,15.85938 -21.2871,20.49874 -7.27204,6.98082 -8.47897,8.5569 -7,9.14102 2.18624,0.86345 555.86202,1.06687 559.07802,0.2054 z m 29.7091,-208.05902 c 0,-121.37232 -0.3336,-180.5336 -1.0219,-181.22188 -0.6958,-0.69584 -10.4271,7.02118 -30.5,24.18685 -108.4196,92.71688 -170.5183,146.07259 -170.7698,146.72669 -0.1605,0.41723 16.9395,17.33695 38,37.59938 21.0604,20.26242 43.9167,42.26149 50.7917,48.8868 6.875,6.62532 23.075,22.20899 36,34.63038 12.925,12.42139 35.2,33.85145 49.5,47.62236 21.7291,20.92519 26.1642,24.76955 27,23.40371 0.6569,-1.0736 1,-63.45715 1,-181.83429 z m -598.716,167.49267 C 156.8934,572.2417 167.50063,562.04042 243.38365,489.21195 283.117,451.07801 315.3796,419.47866 315.07832,418.99118 314.39389,417.88375 115.75849,247.70016 114.6878,247.30386 c -0.42954,-0.15899 -1.06574,1.13476 -1.41379,2.875 -0.82199,4.10996 -0.82962,354.67999 -0.008,358.78906 0.34375,1.71875 1.03406,3.125 1.53402,3.125 0.49996,0 7.98121,-6.8433 16.625,-15.20733 z M 449.6412,438.17784 c 14.575,-11.84466 32.575,-26.49891 40,-32.56501 7.425,-6.06609 41.85002,-35.30041 76.50002,-64.96514 34.65,-29.66473 79.8389,-68.35087 100.4197,-85.96919 33.4658,-28.64853 37.1641,-32.10479 35,-32.70976 -2.9961,-0.83759 -556.55429,-1.08044 -559.66972,-0.24553 -1.2375,0.33163 -2.21717,0.88799 -2.17703,1.23634 0.0401,0.34835 4.87763,4.72073 10.75,9.71638 5.87236,4.99566 38.80203,33.13389 73.17703,62.52939 34.375,29.39551 74.875,64.02331 90,76.95069 15.125,12.92737 38.075,32.12199 51,42.65472 12.925,10.53272 30.925,25.20139 40,32.59705 9.075,7.39565 16.95,13.18995 17.5,12.87622 0.55,-0.31373 12.925,-10.2615 27.5,-22.10616 z" id="path1"/>
  </g>
</svg>