<?xml version="1.0" standalone="no"?>
<!DOCTYPE svg PUBLIC "-//W3C//DTD SVG 1.1//EN" "http://www.w3.org/Graphics/SVG/1.1/DTD/svg11.dtd">
<svg xmlns="http://www.w3.org/2000/svg" xmlns:xlink="http://www.w3.org/1999/xlink" xml:space="preserve" overflow="hidden" viewBox="0 0 23 23"><g transform="translate(-1 -98)"><path d="M8.33765 120.486C7.71279 120.226 7.08905 119.922 6.79926 119.736 6.69688 119.671 6.57132 119.598 6.52011 119.575 6.37628 119.51 5.8714 119.156 5.84822 119.104 5.83685 119.078 5.79032 119.057 5.74486 119.057 5.69935 119.057 5.65281 119.036 5.64145 119.01 5.63008 118.984 5.49527 118.866 5.34185 118.747 5.0284 118.503 4.50678 118.032 4.35588 117.855 4.30109 117.791 4.1544 117.638 4.02991 117.514 3.90541 117.391 3.69862 117.15 3.57037 116.979 3.44211 116.809 3.31371 116.66 3.28502 116.649 3.25634 116.637 3.23286 116.605 3.23286 116.578 3.23286 116.55 3.08519 116.308 2.9047 116.04 2.72421 115.772 2.52806 115.455 2.46882 115.336 2.40957 115.216 2.33439 115.077 2.30175 115.026 2.24784 114.941 2.03843 114.48 1.83701 114.002 1.79387 113.9 1.72391 113.704 1.68155 113.568 1.6392 113.432 1.56972 113.208 1.52717 113.072 1.16779 111.919 1.09289 111.34 1.09414 109.723 1.09535 108.165 1.18704 107.443 1.50377 106.497 1.53806 106.395 1.61004 106.172 1.66375 106.001 1.844 105.429 2.55778 103.933 2.8164 103.586 2.8432 103.55 2.98637 103.345 3.13454 103.131 3.28272 102.917 3.49804 102.626 3.61303 102.484 3.98426 102.025 5.33382 100.698 5.42882 100.698 5.4456 100.698 5.53516 100.628 5.62788 100.542 5.83942 100.346 7.09781 99.5721 7.38845 99.4593 7.50785 99.413 7.64963 99.3378 7.70349 99.2923 7.75735 99.2467 7.83592 99.2095 7.8781 99.2095 7.92032 99.2095 8.01583 99.1755 8.09031 99.134 8.26362 99.0375 8.96678 98.7828 9.2492 98.7143 9.3686 98.6854 9.68957 98.6074 9.96246 98.541 11.6038 98.1419 13.4072 98.1419 15.0485 98.541 15.3214 98.6074 15.6423 98.6854 15.7617 98.7143 16.0441 98.7828 16.7473 99.0375 16.9206 99.134 16.9951 99.1755 17.0906 99.2095 17.1328 99.2095 17.175 99.2095 17.2536 99.2467 17.3074 99.2923 17.3613 99.3378 17.503 99.413 17.6224 99.4593 17.9131 99.5721 19.1715 100.346 19.383 100.542 19.4757 100.628 19.5653 100.698 19.5821 100.698 19.6771 100.698 21.0266 102.025 21.3979 102.484 21.5129 102.626 21.7282 102.917 21.8764 103.131 22.0245 103.345 22.1677 103.55 22.1945 103.586 22.4531 103.933 23.1669 105.429 23.3472 106.001 23.4008 106.172 23.4728 106.395 23.5071 106.497 23.8239 107.443 23.9156 108.165 23.9168 109.723 23.918 111.34 23.8431 111.919 23.4837 113.072 23.4412 113.208 23.3717 113.432 23.3294 113.568 23.287 113.704 23.217 113.9 23.1739 114.002 22.9725 114.48 22.7631 114.941 22.7091 115.026 22.6765 115.077 22.6013 115.216 22.5421 115.336 22.4828 115.455 22.2867 115.772 22.1062 116.04 21.9257 116.308 21.778 116.55 21.778 116.578 21.778 116.605 21.7545 116.637 21.7259 116.649 21.6972 116.66 21.5688 116.809 21.4405 116.979 21.3123 117.15 21.1055 117.391 20.981 117.514 20.8565 117.638 20.7098 117.791 20.655 117.855 20.5041 118.032 19.9825 118.503 19.6691 118.747 19.5156 118.866 19.3808 118.984 19.3694 119.01 19.3581 119.036 19.3116 119.057 19.2661 119.057 19.2206 119.057 19.1741 119.079 19.1627 119.106 19.1282 119.188 18.2761 119.731 17.7954 119.978 17.2073 120.28 16.0933 120.732 15.9354 120.732 15.6949 120.732 15.4669 120.539 15.4278 120.304 15.4076 120.181 15.3896 119.285 15.3881 118.313 15.385 116.425 15.3419 116.034 15.0762 115.483 14.9959 115.317 14.8656 115.111 14.7865 115.026 14.6947 114.926 14.6712 114.867 14.7216 114.86 15.941 114.697 16.3838 114.576 17.2503 114.169 18.0126 113.81 18.8777 113.013 19.121 112.443 19.1628 112.346 19.2298 112.224 19.2699 112.172 19.3781 112.034 19.6079 111.287 19.7373 110.653 19.8861 109.924 19.8955 108.642 19.7559 108.114 19.5762 107.434 19.2536 106.731 18.9723 106.407 18.6552 106.042 18.6572 106.048 18.7691 105.768 18.9149 105.403 18.9185 104.151 18.7752 103.641 18.5843 102.962 18.5638 102.931 18.3127 102.932 18.0763 102.934 17.2835 103.126 17.0865 103.23 17.0231 103.264 16.7758 103.382 16.537 103.493 16.2982 103.604 16.0889 103.715 16.0718 103.739 16.0548 103.762 15.9431 103.832 15.8237 103.892 15.7044 103.953 15.5881 104.031 15.5655 104.066 15.5149 104.145 15.0883 104.133 14.8614 104.047 14.5315 103.922 13.3682 103.799 12.5054 103.799 11.6504 103.799 10.48 103.921 10.1567 104.044 9.84836 104.161 9.59999 104.138 9.32795 103.965 9.18366 103.874 9.03712 103.799 9.00231 103.799 8.96754 103.799 8.93906 103.778 8.93906 103.753 8.93906 103.727 8.73669 103.613 8.48939 103.5 8.24205 103.386 7.98784 103.265 7.92441 103.231 7.73026 103.127 6.93658 102.934 6.69823 102.932 6.44941 102.931 6.43121 102.958 6.24151 103.613 6.10293 104.092 6.10472 105.425 6.24447 105.775 6.35327 106.046 6.35431 106.043 6.03855 106.407 5.7573 106.731 5.43471 107.434 5.255 108.114 5.11545 108.642 5.12484 109.924 5.27359 110.653 5.40301 111.287 5.63278 112.034 5.74099 112.172 5.78106 112.224 5.84809 112.346 5.88991 112.443 6.24142 113.266 7.51508 114.213 8.75299 114.571 9.12966 114.68 9.98192 114.837 10.2067 114.838L10.3888 114.84 10.2306 115.01C10.0532 115.201 9.74585 115.826 9.74455 115.999 9.74235 116.287 9.66809 116.379 9.33118 116.508 8.87855 116.681 7.98964 116.69 7.55677 116.525 7.15517 116.373 6.75928 116.029 6.45156 115.566 5.82073 114.616 4.92931 114.082 4.29264 114.272 3.89842 114.39 3.95917 114.598 4.50435 114.996 4.95656 115.326 5.35747 115.805 5.56728 116.266 6.03689 117.298 6.4017 117.77 6.84575 117.919 6.90545 117.939 6.95428 117.974 6.95428 117.997 6.95428 118.073 7.59662 118.251 8.05073 118.302 8.2956 118.329 8.65843 118.331 8.85708 118.306 9.05567 118.282 9.3089 118.259 9.41977 118.256L9.62133 118.251 9.62133 119.204C9.62133 120.366 9.59873 120.496 9.37341 120.629 9.12661 120.775 8.98308 120.755 8.33765 120.486Z" fill="#004BA6"/></g></svg>