<svg xmlns="http://www.w3.org/2000/svg" xml:space="preserve" overflow="hidden" viewBox="0 0 23 23">
  <path d="M7.338 22.486c-.625-.26-1.249-.564-1.539-.75a3.128 3.128 0 0 0-.279-.161c-.144-.065-.649-.419-.672-.471-.011-.026-.058-.047-.103-.047-.046 0-.092-.021-.104-.047-.01-.026-.146-.144-.3-.263-.313-.244-.834-.715-.985-.892a8.139 8.139 0 0 0-.326-.341 5.827 5.827 0 0 1-.46-.535c-.128-.17-.256-.319-.285-.33-.029-.012-.052-.044-.052-.071 0-.028-.148-.27-.328-.538a8.999 8.999 0 0 1-.436-.704 4.333 4.333 0 0 0-.167-.31c-.054-.085-.264-.546-.465-1.024a5.794 5.794 0 0 1-.155-.434l-.155-.496c-.36-1.153-.434-1.732-.433-3.349.001-1.558.093-2.28.41-3.226.034-.102.106-.325.16-.496.18-.572.894-2.068 1.152-2.415.027-.036.17-.241.319-.455.148-.214.363-.505.478-.647.371-.459 1.72-1.786 1.816-1.786.017 0 .106-.07.199-.156.211-.196 1.47-.97 1.76-1.083.12-.046.262-.121.315-.167a.346.346 0 0 1 .175-.082.59.59 0 0 0 .212-.076c.174-.097.877-.351 1.16-.42l.712-.173c1.642-.4 3.445-.4 5.087 0l.713.173c.282.069.985.323 1.159.42a.59.59 0 0 0 .212.076c.042 0 .12.037.174.082.054.046.196.121.315.167.291.113 1.55.887 1.761 1.083a.912.912 0 0 0 .2.156c.094 0 1.444 1.327 1.815 1.786.115.142.33.433.478.647.148.214.292.419.319.455.258.347.972 1.843 1.152 2.415.054.171.126.394.16.496.317.946.409 1.668.41 3.226.001 1.617-.074 2.196-.433 3.349l-.155.496a5.829 5.829 0 0 1-.155.434c-.201.478-.41.939-.465 1.024-.032.051-.108.19-.167.31-.06.119-.255.436-.436.704-.18.268-.328.51-.328.538 0 .027-.023.059-.052.071-.029.011-.157.16-.285.33a5.82 5.82 0 0 1-.46.535 8.143 8.143 0 0 0-.326.341c-.15.177-.672.648-.986.892-.153.119-.288.237-.3.263-.01.026-.057.047-.103.047-.045 0-.092.022-.103.049-.035.082-.887.625-1.368.872-.588.302-1.702.754-1.86.754a.533.533 0 0 1-.507-.428c-.02-.123-.038-1.019-.04-1.991-.003-1.888-.046-2.279-.312-2.83a2.291 2.291 0 0 0-.29-.457c-.091-.1-.115-.159-.064-.166 1.219-.163 1.662-.284 2.528-.691.763-.359 1.628-1.156 1.871-1.726.042-.097.109-.219.149-.271.108-.138.338-.885.467-1.519.15-.729.159-2.011.019-2.539-.18-.68-.502-1.383-.784-1.707-.317-.365-.315-.359-.203-.639.146-.365.15-1.617.006-2.127-.19-.679-.211-.71-.462-.709-.237.002-1.03.194-1.226.298-.064.034-.311.152-.55.263-.239.111-.448.222-.465.246a1.182 1.182 0 0 1-.248.153c-.12.061-.236.139-.258.174-.051.079-.478.067-.705-.019-.33-.125-1.493-.248-2.356-.248-.855 0-2.025.122-2.348.245-.309.117-.557.094-.83-.079-.143-.091-.29-.166-.325-.166-.034 0-.063-.021-.063-.046 0-.026-.202-.14-.45-.253a18.01 18.01 0 0 1-.565-.269c-.194-.104-.987-.297-1.226-.299-.249-.001-.267.026-.456.681-.14.479-.137 1.812.002 2.162.11.271.11.268-.205.632-.282.324-.604 1.027-.784 1.707-.14.528-.13 1.81.019 2.539.129.634.359 1.381.467 1.519.04.052.107.174.149.271.351.823 1.625 1.77 2.863 2.128.377.109 1.229.266 1.454.267l.182.002-.158.17c-.178.191-.485.816-.486.989-.003.288-.077.38-.414.509-.452.173-1.341.182-1.774.017-.402-.152-.798-.496-1.105-.959-.631-.95-1.523-1.484-2.16-1.294-.394.118-.333.326.212.724.453.33.853.809 1.063 1.27.47 1.032.835 1.504 1.279 1.653.06.02.108.055.108.078 0 .076.643.254 1.097.305.245.027.607.029.806.004.199-.024.452-.047.563-.05l.201-.005v.953c0 1.162-.022 1.292-.248 1.425-.246.146-.39.126-1.035-.143Z"/>
</svg>
