<?xml version="1.0" standalone="no"?>
<!DOCTYPE svg PUBLIC "-//W3C//DTD SVG 1.1//EN" "http://www.w3.org/Graphics/SVG/1.1/DTD/svg11.dtd">
<svg xmlns="http://www.w3.org/2000/svg" xmlns:xlink="http://www.w3.org/1999/xlink" xml:space="preserve" overflow="hidden" viewBox="0 0 24 25"><g transform="matrix(1 0 0 1 0 -134)"><path d="M10.5171 23.8461C9.82028 23.7704 9.04028 23.6056 8.54312 23.4292 8.41853 23.385 8.20009 23.3136 8.05774 23.2706 7.69113 23.16 7.00343 22.8736 6.6986 22.7046 6.55619 22.6257 6.33776 22.51 6.21316 22.4476 6.08862 22.3851 5.75787 22.1799 5.47821 21.9915 5.19856 21.8032 4.94618 21.6491 4.91731 21.6491 4.88843 21.6491 4.85511 21.6272 4.84325 21.6005 4.83139 21.5738 4.66151 21.422 4.46573 21.2632 4.08632 20.9553 3.68404 20.5924 3.50633 20.3975 3.44665 20.3321 3.2959 20.1716 3.17131 20.041 3.04673 19.9103 2.8283 19.658 2.68591 19.4804 2.54352 19.3027 2.40518 19.1476 2.37848 19.1358 2.35179 19.1239 2.32995 19.0906 2.32995 19.0617 2.32995 19.0329 2.17585 18.7804 1.98751 18.5008 1.79917 18.2211 1.59396 17.8904 1.53148 17.7658 1.469 17.6412 1.3533 17.4228 1.27438 17.2804 1.10542 16.9756 0.819025 16.2879 0.708363 15.9213 0.665388 15.7789 0.593145 15.5605 0.547831 15.4359 0.46022 15.195 0.323315 14.6367 0.182817 13.9473 0.065344 13.3709 0.065344 10.5758 0.182817 9.99934 0.323315 9.30995 0.46022 8.75162 0.547831 8.51078 0.593145 8.38619 0.665388 8.16775 0.708363 8.02534 0.819845 7.65602 1.10625 6.9693 1.2752 6.66621 1.35457 6.52385 1.45973 6.31976 1.5089 6.2127 1.55807 6.10563 1.76292 5.77493 1.96412 5.47775 2.16532 5.18056 2.32995 4.91379 2.32995 4.88497 2.32995 4.85609 2.35179 4.82276 2.37848 4.8109 2.40518 4.79904 2.54246 4.64578 2.68355 4.47033 2.82463 4.29488 2.99938 4.08696 3.07187 4.00829 3.50673 3.53637 3.63239 3.4075 3.85861 3.20138 3.99674 3.07552 4.26995 2.84253 4.46573 2.68361 4.66151 2.52469 4.83139 2.37282 4.84325 2.34612 4.85511 2.31943 4.88843 2.29758 4.91731 2.29758 4.94618 2.29758 5.2129 2.13296 5.51009 1.93176 5.80728 1.73056 6.13802 1.52571 6.24504 1.47654 6.3521 1.42738 6.55619 1.32221 6.6986 1.24283 7.00165 1.07389 7.68841 0.787483 8.05774 0.676005 8.20009 0.633026 8.41853 0.560787 8.54312 0.515473 8.78401 0.427859 9.34234 0.290955 10.0317 0.150457 10.3119 0.0933564 10.9712 0.0647205 12.0057 0.0647205 13.0402 0.0647205 13.6995 0.0933564 13.9797 0.150457 14.6691 0.290955 15.2274 0.427859 15.4682 0.515473 15.5928 0.560787 15.8113 0.633026 15.9537 0.676005 16.3203 0.786663 17.008 1.07306 17.3128 1.24202 17.4552 1.32094 17.6736 1.43663 17.7982 1.49912 17.9228 1.5616 18.2535 1.76682 18.5331 1.95515 18.8128 2.14349 19.0652 2.29758 19.0941 2.29758 19.1229 2.29758 19.1562 2.31943 19.1681 2.34612 19.18 2.37282 19.3351 2.51116 19.5127 2.65355 19.6904 2.79593 19.9427 3.01437 20.0733 3.13895 20.204 3.26354 20.3644 3.4143 20.4298 3.47396 20.6247 3.65168 20.9877 4.05396 21.2956 4.43336 21.4544 4.62915 21.6062 4.79904 21.6329 4.8109 21.6596 4.82276 21.6814 4.8604 21.6814 4.89458 21.6814 4.9287 21.7926 5.10832 21.9286 5.29367 22.0644 5.47906 22.1964 5.67439 22.2218 5.72778 22.2471 5.78117 22.3519 5.97049 22.4545 6.14848 22.8328 6.8043 23.1495 7.50086 23.2931 7.993 23.3398 8.15317 23.4163 8.38619 23.463 8.51078 23.5096 8.63537 23.5931 8.94114 23.6484 9.19033 23.7037 9.43951 23.7809 9.78817 23.82 9.96507 23.8591 10.142 23.9065 10.7973 23.9255 11.4213 23.9753 13.0604 23.8163 14.4362 23.4616 15.4359 23.4173 15.5605 23.346 15.7789 23.303 15.9213 23.1924 16.2879 22.9059 16.9756 22.737 17.2804 22.6581 17.4228 22.5424 17.6412 22.4799 17.7658 22.4174 17.8904 22.2122 18.2211 22.0239 18.5008 21.8355 18.7804 21.6814 19.0329 21.6814 19.0617 21.6814 19.0906 21.6596 19.1239 21.6329 19.1358 21.6062 19.1476 21.4544 19.3175 21.2956 19.5133 20.9877 19.8927 20.6247 20.295 20.4298 20.4727 20.3644 20.5323 20.204 20.6831 20.0733 20.8077 19.9427 20.9323 19.6904 21.1507 19.5127 21.2931 19.3351 21.4355 19.18 21.5738 19.1681 21.6005 19.1562 21.6272 19.1229 21.6491 19.0941 21.6491 19.0652 21.6491 18.8128 21.8032 18.5331 21.9915 18.2535 22.1799 17.9228 22.3851 17.7982 22.4476 17.6736 22.51 17.4552 22.6257 17.3128 22.7046 17.008 22.8736 16.3203 23.16 15.9537 23.2706 15.8113 23.3136 15.5928 23.385 15.4682 23.4292 14.3048 23.8421 12.1499 24.0235 10.5171 23.8461ZM8.80628 17.893C8.92787 17.8279 8.93144 17.7159 8.93144 13.958 8.93144 11.0358 8.91245 10.071 8.85381 10.0123 8.79948 9.95799 8.44619 9.9346 7.67978 9.9346 6.71154 9.9346 6.57335 9.94787 6.49746 10.0479 6.42827 10.139 6.41107 10.9007 6.40938 13.9422 6.40755 17.3715 6.4173 17.7343 6.51448 17.8416 6.60968 17.9468 6.73591 17.96 7.65133 17.96 8.23741 17.96 8.73503 17.9311 8.80628 17.893ZM12.5272 17.8682C12.6465 17.7811 12.6546 17.6581 12.6853 15.4573 12.7173 13.1587 12.719 13.1355 12.8762 12.8147 12.9635 12.6367 13.0858 12.454 13.1481 12.4088 13.2104 12.3635 13.2992 12.289 13.3455 12.2432 13.3917 12.1975 13.5711 12.1206 13.7441 12.0725 14.2985 11.9181 14.8863 12.1679 15.123 12.6583 15.2819 12.9874 15.2981 13.2034 15.3341 15.4791 15.3545 16.7666 15.3954 17.8442 15.4249 17.8738 15.5036 17.9526 17.7462 17.9755 17.8629 17.8987 17.9466 17.8437 17.9597 17.4751 17.958 15.2277 17.9558 12.1716 17.939 12.028 17.473 11.0754 17.0742 10.2602 16.1866 9.79787 15.0152 9.79525 14.1198 9.79323 13.3569 10.0733 12.8956 10.5733L12.6853 10.8013 12.6853 10.5118C12.6853 10.3526 12.6399 10.1576 12.5845 10.0785 12.4869 9.9392 12.448 9.9346 11.3571 9.9346 10.3094 9.9346 10.2257 9.94342 10.1634 10.0598 10.1194 10.142 10.0964 11.4849 10.0964 13.9708 10.0964 17.3261 10.108 17.7681 10.1981 17.8583 10.3402 18.0004 12.3347 18.0089 12.5272 17.8682ZM8.37119 9.12568C8.64386 9.01178 9.01253 8.66017 9.16984 8.36411 9.3265 8.06931 9.32828 7.20447 9.17289 6.88029 9.02673 6.57537 8.73109 6.27968 8.42617 6.13357 8.10236 5.97837 7.24202 5.9757 6.92247 6.12888 6.63752 6.26552 6.27059 6.65787 6.14763 6.95749 6.02641 7.2528 6.03912 8.02277 6.17009 8.31662 6.28634 8.57744 6.55254 8.89909 6.65219 8.89909 6.68955 8.89909 6.72987 8.9237 6.74172 8.95375 6.83862 9.19928 7.92161 9.31351 8.37123 9.12568Z" fill="#004BA6" transform="matrix(1 0 0 1.04167 0 134)"/></g></svg>