<?xml version="1.0" standalone="no"?>
<!DOCTYPE svg PUBLIC "-//W3C//DTD SVG 1.1//EN" "http://www.w3.org/Graphics/SVG/1.1/DTD/svg11.dtd">
<svg xmlns="http://www.w3.org/2000/svg" xmlns:xlink="http://www.w3.org/1999/xlink" xml:space="preserve" overflow="hidden" viewBox="0 0 24 24"><defs><clipPath id="clip0"><path d="M1.06621 66.4403 24.0597 66.4403 24.0598 89.4302 1.06628 89.4303Z" fill-rule="evenodd" clip-rule="evenodd"/></clipPath><clipPath id="clip1"><path d="M1.06621 66.4403 24.0597 66.4403 24.0598 89.4302 1.06628 89.4303Z" fill-rule="evenodd" clip-rule="evenodd"/></clipPath></defs><g transform="translate(-1 -66)"><g clip-path="url(#clip0)"><g clip-path="url(#clip1)"><path d="M10.2605 22.8718C9.65097 22.8132 8.50184 22.5736 8.12156 22.4259 8.03634 22.3928 7.85498 22.3321 7.71861 22.2911 7.36887 22.1858 6.70962 21.9114 6.41668 21.7492 6.28027 21.6737 6.0571 21.5555 5.92069 21.4865 5.63134 21.34 5.54127 21.2832 5.10406 20.9704 4.9253 20.8425 4.7523 20.738 4.71956 20.738 4.68687 20.738 4.65077 20.717 4.63941 20.6914 4.62805 20.6658 4.46532 20.5204 4.27778 20.3683 3.91434 20.0734 3.52899 19.7257 3.35876 19.539 3.3016 19.4763 3.15719 19.3226 3.03784 19.1975 2.9185 19.0724 2.70926 18.8307 2.57287 18.6605 2.43647 18.4903 2.30395 18.3418 2.27838 18.3304 2.25281 18.319 2.23189 18.2871 2.23189 18.2595 2.23189 18.2318 2.08428 17.99 1.90386 17.7222 1.72345 17.4543 1.52688 17.1375 1.46702 17.0181 1.40717 16.8988 1.29634 16.6895 1.22074 16.5531 1.0589 16.2612 0.784555 15.6024 0.67855 15.2512 0.637384 15.1148 0.568181 14.9056 0.524774 14.7862 0.440851 14.5555 0.309708 14.0207 0.175123 13.3603 0.0634367 12.8123 0.0626266 10.1326 0.17398 9.5785 0.305154 8.9258 0.437784 8.38478 0.523549 8.15259 0.567633 8.03324 0.637384 7.824 0.67855 7.68759 0.784389 7.33699 1.05873 6.67801 1.22058 6.38565 1.29609 6.24928 1.41434 6.02608 1.48335 5.88971 1.62975 5.60036 1.68667 5.51029 1.9994 5.07308 2.12726 4.89432 2.23189 4.72127 2.23189 4.68858 2.23189 4.65585 2.25281 4.61979 2.27838 4.60843 2.30395 4.59707 2.43546 4.45026 2.5706 4.28219 2.70576 4.11413 2.87315 3.91496 2.94259 3.8396 3.35914 3.38754 3.47951 3.26409 3.69622 3.06664 3.82854 2.94608 4.09024 2.7229 4.27778 2.57067 4.46532 2.41844 4.62805 2.27296 4.63941 2.24738 4.65077 2.22181 4.68687 2.20089 4.71956 2.20089 4.7523 2.20089 4.9253 2.09627 5.10406 1.9684 5.54127 1.65568 5.63134 1.59875 5.92069 1.45235 6.0571 1.38334 6.28027 1.26509 6.41668 1.18958 6.70904 1.02773 7.36797 0.753389 7.71861 0.647555 7.85498 0.606384 8.06422 0.537185 8.18357 0.493779 8.41432 0.409852 8.94915 0.27871 9.60953 0.144125 10.1575 0.0324382 12.8372 0.0316283 13.3913 0.142982 14.6613 0.398198 15.8726 0.795314 16.5842 1.18975 16.7205 1.26535 16.9298 1.37617 17.0491 1.43603 17.1685 1.49588 17.4853 1.69246 17.7531 1.87287 18.021 2.05328 18.2628 2.20089 18.2905 2.20089 18.3181 2.20089 18.35 2.22181 18.3614 2.24738 18.3727 2.27296 18.5213 2.40548 18.6915 2.54187 18.8617 2.67826 19.1033 2.8875 19.2285 3.00685 19.3537 3.12619 19.5073 3.2706 19.57 3.32776 19.7567 3.498 20.1044 3.88334 20.3993 4.24678 20.5514 4.43432 20.6969 4.59707 20.7224 4.60843 20.748 4.61979 20.7689 4.65585 20.7689 4.68858 20.7689 4.72127 20.8736 4.89432 21.0014 5.07308 21.3141 5.51029 21.3711 5.60036 21.5175 5.88971 21.5865 6.02608 21.7047 6.24928 21.7802 6.38565 21.9421 6.67801 22.2164 7.33699 22.3223 7.68759 22.3635 7.824 22.4326 8.03324 22.476 8.15259 22.5599 8.3833 22.6911 8.91813 22.8257 9.5785 22.9382 10.1307 22.9382 12.8082 22.8257 13.3603 22.6911 14.0207 22.5599 14.5555 22.476 14.7862 22.4326 14.9056 22.3635 15.1148 22.3223 15.2512 22.2163 15.6024 21.9419 16.2612 21.7801 16.5531 21.7045 16.6895 21.5937 16.8988 21.5338 17.0181 21.4739 17.1375 21.2774 17.4543 21.0969 17.7222 20.9165 17.99 20.7689 18.2318 20.7689 18.2595 20.7689 18.2871 20.748 18.319 20.7224 18.3304 20.6969 18.3418 20.5514 18.5045 20.3993 18.692 20.1044 19.0555 19.7567 19.4408 19.57 19.611 19.5073 19.6682 19.3537 19.8126 19.2285 19.932 19.1033 20.0513 18.8617 20.2606 18.6915 20.397 18.5213 20.5333 18.3727 20.6658 18.3614 20.6914 18.35 20.717 18.3181 20.738 18.2905 20.738 18.2628 20.738 18.021 20.8855 17.7531 21.066 17.4853 21.2464 17.1685 21.443 17.0491 21.5028 16.9298 21.5627 16.7205 21.6735 16.5842 21.7491 15.8873 22.1354 14.7503 22.5113 13.4533 22.7842 13.1203 22.8543 10.7532 22.9193 10.2605 22.8718ZM11.6368 18.8537C11.6797 18.7789 12.2405 18.1358 12.5268 17.8331 12.5798 17.777 12.7185 17.6055 12.835 17.4521 12.9515 17.2986 13.0964 17.128 13.1571 17.0728 13.2177 17.0177 13.2673 16.941 13.2673 16.9024 13.2673 16.8637 13.2905 16.8322 13.3188 16.8322 13.3471 16.8322 13.4643 16.6996 13.5791 16.5376 13.6939 16.3757 13.8079 16.2291 13.8322 16.2118 13.8711 16.1844 14.7394 14.9976 15.1388 14.4261 15.2177 14.3132 15.3101 14.1872 15.3442 14.1459 15.3783 14.1047 15.4599 13.9739 15.5255 13.8551 15.5912 13.7364 15.6624 13.6253 15.6837 13.6083 15.7052 13.5913 15.7713 13.4797 15.8307 13.3603 15.8901 13.241 15.9904 13.0596 16.0536 12.9573 16.1786 12.755 16.721 11.6701 16.7974 11.4694 17.0995 10.6758 17.1731 10.2991 17.1731 9.54536 17.1731 8.79896 17.1293 8.53727 16.8774 7.78058 16.6618 7.13287 16.0765 6.10668 15.9227 6.10668 15.8944 6.10668 15.8712 6.07942 15.8712 6.04606 15.8712 5.9849 15.224 5.30073 15.1661 5.30073 15.1489 5.30073 15.0433 5.21703 14.9312 5.11474 14.8192 5.01246 14.692 4.92876 14.6484 4.92876 14.6049 4.92876 14.5693 4.90582 14.5693 4.87775 14.5693 4.80887 13.7797 4.42858 13.2673 4.25062 12.284 3.9091 10.6857 3.91038 9.7335 4.25344 9.14493 4.4655 8.43157 4.80928 8.43157 4.88085 8.43157 4.90721 8.39592 4.92876 8.35241 4.92876 8.30885 4.92876 8.18155 5.01246 8.06957 5.11474 7.95758 5.21703 7.85188 5.30073 7.83473 5.30073 7.77294 5.30073 7.13269 5.98405 6.8934 6.30537 6.55067 6.7657 6.30375 7.23875 6.12338 7.78058 5.87157 8.53727 5.8277 8.79896 5.8277 9.54536 5.8277 10.2991 5.90125 10.6758 6.20344 11.4694 6.27982 11.6701 6.82219 12.755 6.94715 12.9573 7.01037 13.0596 7.11073 13.241 7.17014 13.3603 7.22954 13.4797 7.29568 13.5913 7.31705 13.6083 7.33847 13.6253 7.40964 13.7361 7.47529 13.8544 7.54089 13.9727 7.61664 14.0983 7.64354 14.1334 7.67043 14.1685 8.01411 14.6432 8.40728 15.1882 8.80044 15.7332 9.14255 16.1936 9.16751 16.2112 9.19248 16.2288 9.30689 16.3757 9.4217 16.5376 9.53656 16.6996 9.65371 16.8322 9.682 16.8322 9.71033 16.8322 9.7335 16.8637 9.7335 16.9024 9.7335 16.941 9.78244 17.0177 9.84225 17.0728 9.90206 17.128 10.0624 17.3126 10.1986 17.4831 10.5666 17.9437 10.606 17.9897 10.9337 18.3395 11.0994 18.5163 11.277 18.7238 11.3283 18.8005 11.4343 18.9588 11.5637 18.9811 11.6368 18.8537Z" fill="#004BA6" transform="matrix(1.00016 -2.90933e-06 2.90888e-06 1 1.06621 66.4403)"/><path d="M11.0974 11.6601C10.7058 11.5743 10.3535 11.4334 10.3535 11.3628 10.3535 11.3362 10.3234 11.3144 10.2866 11.3144 10.1611 11.3144 9.74212 10.8176 9.56718 10.4612 9.41721 10.1558 9.39252 10.0309 9.39252 9.5785 9.39252 9.13051 9.41771 9.00043 9.56067 8.71054 9.89775 8.02713 10.449 7.60236 11.1594 7.47861 12.0897 7.31661 12.9946 7.80173 13.435 8.69855 13.5834 9.00097 13.6083 9.12706 13.6083 9.5785 13.6083 10.0309 13.5836 10.1558 13.4337 10.4612 13.262 10.8109 12.8405 11.3144 12.7194 11.3144 12.6855 11.3144 12.6484 11.3353 12.637 11.3609 12.5953 11.4548 12.1724 11.6207 11.8145 11.6837 11.6122 11.7193 11.4448 11.7453 11.4425 11.7417 11.4403 11.7379 11.285 11.7012 11.0974 11.6601Z" fill="#004BA6" transform="matrix(1.00016 -2.90933e-06 2.90888e-06 1 1.06621 66.4403)"/></g></g></g></svg>