<?xml version="1.0" standalone="no"?>
<!DOCTYPE svg PUBLIC "-//W3C//DTD SVG 1.1//EN" "http://www.w3.org/Graphics/SVG/1.1/DTD/svg11.dtd">
<svg xmlns="http://www.w3.org/2000/svg" xmlns:xlink="http://www.w3.org/1999/xlink" xml:space="preserve" overflow="hidden" viewBox="0 0 24 24"><defs><clipPath id="clip0"><rect x="0" y="0" width="24" height="24"/></clipPath></defs><g clip-path="url(#clip0)"><path d="M11.6374 23.9818C11.6249 23.9693 11.4324 23.949 11.2095 23.9366 10.8192 23.9148 10.3189 23.8589 9.94833 23.7955 9.53883 23.7255 8.78133 23.5523 8.64947 23.4986 8.61698 23.4854 8.51072 23.4525 8.41327 23.4256 8.31586 23.3986 8.21578 23.3658 8.19089 23.3526 8.16605 23.3393 8.10005 23.3185 8.04427 23.3063 7.98853 23.294 7.92253 23.2738 7.89764 23.2612 7.87275 23.2488 7.79264 23.2156 7.71956 23.1877 7.51973 23.1112 7.46864 23.0895 6.99633 22.8795 6.64828 22.7249 6.15947 22.4699 5.93245 22.3245 5.90062 22.3042 5.85459 22.2787 5.83027 22.2681 5.80589 22.2574 5.74641 22.221 5.69803 22.1871 5.60044 22.1187 5.51353 22.0652 5.4465 22.0322 5.42212 22.0202 5.38894 21.9991 5.37267 21.9854 5.35645 21.9717 5.21034 21.8658 5.04797 21.7502 4.78814 21.5652 4.39884 21.2657 4.30781 21.1808 4.29039 21.1646 4.21069 21.0983 4.13069 21.0337 3.94685 20.885 3.17703 20.1153 2.98155 19.8847 2.90037 19.7889 2.82067 19.6957 2.80443 19.6775 2.68117 19.5391 2.4924 19.2946 2.27722 18.9947 2.13808 18.8008 2.01314 18.6288 1.99957 18.6126 1.98599 18.5963 1.96507 18.5631 1.95307 18.5387 1.92603 18.4838 1.88785 18.4222 1.74817 18.2081 1.68778 18.1155 1.63838 18.0327 1.63838 18.0241 1.63838 18.0155 1.58806 17.9251 1.52657 17.8234 1.41406 17.6372 1.167 17.145 1.04848 16.8708 0.895589 16.5173 0.872738 16.4621 0.79755 16.2657 0.769589 16.1926 0.736477 16.1125 0.72397 16.0876 0.711464 16.0627 0.691214 15.9967 0.678966 15.941 0.666722 15.8852 0.646195 15.8192 0.633356 15.7943 0.595242 15.7204 0.464081 15.2862 0.441376 15.1587 0.42981 15.0938 0.410608 15.0273 0.398705 15.0111 0.386802 14.9948 0.368085 14.9218 0.357112 14.8487 0.346138 14.7757 0.325209 14.676 0.310603 14.6273 0.295998 14.5786 0.263708 14.4325 0.238849 14.3026 0.21399 14.1727 0.185407 14.0265 0.175332 13.9778 0.101943 13.6231 0.009741 12.5237 0.00944437 12 0.00913087 11.4464 0.118203 10.159 0.169742 10.108 0.181919 10.096 0.191882 10.0439 0.191882 9.9922 0.191882 9.90792 0.227191 9.72947 0.355349 9.16603 0.435692 8.81283 0.585234 8.29495 0.632663 8.20566 0.645881 8.18077 0.666722 8.11481 0.678966 8.05903 0.691214 8.0033 0.711464 7.9373 0.72397 7.91241 0.736477 7.88752 0.769589 7.80736 0.79755 7.73433 0.863559 7.56188 0.88155 7.51847 0.975038 7.30627 1.01796 7.20886 1.07341 7.08267 1.09827 7.02581 1.24884 6.68161 1.52155 6.15966 1.66892 5.93358 1.6848 5.9092 1.70651 5.86936 1.71717 5.84503 1.72783 5.82066 1.76427 5.76117 1.79816 5.7128 1.86652 5.6152 1.92005 5.5283 1.95307 5.46127 1.96507 5.43689 1.98611 5.4037 1.99983 5.38744 2.01355 5.37122 2.11774 5.22755 2.23135 5.06817 2.42638 4.79456 2.56651 4.61334 2.81512 4.31314 2.87419 4.24183 2.95572 4.14226 2.99631 4.09188 3.10322 3.95921 3.93979 3.12232 4.04428 3.04353 4.09299 3.0068 4.17977 2.93466 4.23712 2.88321 4.4446 2.69709 4.64445 2.54026 4.99055 2.29197 5.18452 2.15284 5.35748 2.02688 5.37497 2.01204 5.39245 1.99722 5.43563 1.97592 5.47092 1.96472 5.50617 1.95353 5.53505 1.93197 5.53505 1.91683 5.53505 1.90169 5.5485 1.8893 5.56491 1.8893 5.58131 1.8893 5.67263 1.83616 5.76773 1.77122 5.86289 1.70627 5.94886 1.65314 5.9588 1.65314 5.96869 1.65314 6.06009 1.60289 6.16186 1.54147 6.36084 1.42137 6.93731 1.13629 7.16592 1.04492 7.24298 1.01413 7.30608 0.978966 7.30617 0.966787 7.30622 0.954614 7.3275 0.944648 7.35347 0.944648 7.37944 0.944648 7.44253 0.926527 7.49367 0.904378 7.54486 0.88223 7.64648 0.841013 7.71956 0.812789 7.79264 0.784561 7.87275 0.751238 7.89764 0.738731 7.92253 0.726225 7.98853 0.705975 8.04427 0.693727 8.10005 0.681478 8.16605 0.660642 8.19089 0.647423 8.21578 0.634205 8.31586 0.601355 8.41327 0.574425 8.51072 0.547495 8.61698 0.514641 8.64947 0.501413 8.72123 0.472181 8.92725 0.418685 9.10702 0.382609 9.18009 0.367947 9.28636 0.343248 9.34317 0.327724 9.9173 0.170882 11.205 0.0220221 11.9852 0.022305 12.7239 0.0225728 13.7086 0.126914 14.4207 0.280368 14.5425 0.306611 14.7085 0.341071 14.7897 0.356947 14.8709 0.372821 14.9639 0.39786 14.9963 0.412588 15.0288 0.427316 15.1019 0.448158 15.1587 0.458904 15.2792 0.481697 15.7135 0.614058 15.7796 0.648117 15.8045 0.660956 15.8704 0.681478 15.9262 0.693727 15.9819 0.705975 16.0479 0.726225 16.0728 0.738731 16.0977 0.751238 16.1779 0.784561 16.2509 0.812789 16.324 0.841013 16.4256 0.88223 16.4768 0.904378 16.5279 0.926527 16.591 0.944648 16.617 0.944648 16.643 0.944648 16.6642 0.957933 16.6642 0.97417 16.6642 0.990408 16.6788 1.00369 16.6966 1.00369 16.7625 1.00369 17.5172 1.3688 17.8303 1.55218 18.1635 1.74737 18.3202 1.84163 18.4025 1.89635 18.445 1.92459 18.4996 1.95713 18.524 1.96867 18.5483 1.9802 18.5815 2.00032 18.5978 2.01338 18.614 2.02644 18.7819 2.1486 18.9708 2.28484 19.574 2.71985 19.8483 2.95389 20.4106 3.51333 20.9966 4.0963 21.2684 4.41287 21.7028 5.01844 21.8367 5.20519 21.9567 5.37192 21.9694 5.38908 22.0261 5.46511 22.0695 5.53894 22.0855 5.5867 22.095 5.61511 22.1122 5.63836 22.1237 5.63836 22.1351 5.63836 22.1739 5.69484 22.2099 5.76384 22.2458 5.83284 22.2914 5.91534 22.3111 5.94722 22.446 6.16556 22.5133 6.28941 22.6917 6.6473 22.8024 6.86934 22.893 7.05773 22.893 7.06589 22.893 7.07405 22.9337 7.17136 22.9834 7.28208 23.085 7.50811 23.101 7.54636 23.1729 7.73433 23.2009 7.80736 23.234 7.88752 23.2465 7.91241 23.259 7.9373 23.2792 8.0033 23.2915 8.05903 23.3038 8.11481 23.3243 8.18077 23.3371 8.20566 23.3752 8.27958 23.5064 8.71383 23.5291 8.84133 23.5407 8.90625 23.5599 8.97267 23.5718 8.98894 23.5837 9.00516 23.6024 9.07823 23.6134 9.15131 23.6243 9.22434 23.6453 9.324 23.6598 9.3727 23.7141 9.55383 23.7786 9.88627 23.7786 9.98456 23.7786 10.0404 23.7885 10.096 23.8007 10.1081 23.8507 10.1577 23.9631 11.4667 23.9631 12 23.9631 12.5247 23.8713 13.5666 23.7824 14.0517 23.7325 14.3233 23.5973 14.9356 23.5444 15.1291 23.4883 15.3344 23.3588 15.7472 23.3359 15.7943 23.3237 15.8192 23.3038 15.8852 23.2915 15.941 23.2792 15.9967 23.259 16.0627 23.2465 16.0876 23.234 16.1125 23.2007 16.1926 23.1725 16.2657 23.1442 16.3387 23.103 16.4404 23.0809 16.4916 23.0587 16.5427 23.0406 16.6058 23.0406 16.6318 23.0406 16.6577 23.0273 16.679 23.0111 16.679 22.9948 16.679 22.9815 16.6937 22.9815 16.7116 22.9815 16.776 22.6049 17.5536 22.4431 17.8234 22.3821 17.9251 22.3321 18.0146 22.3321 18.0222 22.3321 18.0412 22.1475 18.3434 22.1248 18.3616 22.1147 18.3698 22.0975 18.3963 22.0866 18.4207 22.0667 18.4651 22.0127 18.5529 21.9694 18.6109 21.9567 18.6281 21.8321 18.8015 21.6925 18.9963 21.553 19.1911 21.4298 19.3572 21.4188 19.3653 21.4079 19.3734 21.3532 19.4407 21.2972 19.5147 20.9512 19.9731 20.0111 20.9216 19.559 21.2684 19.5174 21.3003 19.4767 21.3341 19.4686 21.3435 19.4605 21.353 19.3675 21.426 19.262 21.5059 19.1565 21.5858 19.0657 21.6615 19.0603 21.6743 19.0549 21.687 19.0383 21.6974 19.0235 21.6974 19.0086 21.6974 18.9134 21.7572 18.8119 21.8302 18.7104 21.9033 18.6133 21.973 18.5962 21.9852 18.5287 22.0333 18.4481 22.0825 18.4059 22.1014 18.3816 22.1122 18.355 22.1303 18.3469 22.1415 18.3238 22.1734 17.7059 22.524 17.6728 22.524 17.6565 22.524 17.6389 22.5342 17.6334 22.5468 17.6168 22.5855 16.7594 22.9963 16.6953 22.9963 16.6782 22.9963 16.6642 23.0096 16.6642 23.0258 16.6642 23.0421 16.643 23.0553 16.617 23.0553 16.591 23.0553 16.5279 23.0735 16.4768 23.0956 16.4256 23.1178 16.324 23.159 16.2509 23.1872 16.1779 23.2155 16.0977 23.2488 16.0728 23.2612 16.0479 23.2738 15.9819 23.294 15.9262 23.3063 15.8704 23.3185 15.8045 23.3393 15.7796 23.3526 15.6904 23.4 15.1733 23.5493 14.8192 23.6299 14.7218 23.6521 14.5491 23.6917 14.4354 23.7178 14.1595 23.7812 13.9445 23.8169 13.5203 23.8697 12.8565 23.9523 11.6781 24.0225 11.6374 23.9818ZM16.5583 19.6351C16.5669 19.6212 16.6469 19.6012 16.7361 19.5907 16.8252 19.5802 16.9285 19.5602 16.9657 19.5461 17.0028 19.5321 17.1129 19.4966 17.2103 19.4672 17.3078 19.4379 17.4001 19.403 17.4155 19.3896 17.4309 19.3762 17.4615 19.3653 17.4835 19.3653 17.5606 19.3653 18.06 19.1229 18.3232 18.9578 18.6545 18.7498 18.9668 18.5168 18.9668 18.4776 18.9668 18.4517 18.9303 18.4121 18.8856 18.3894 18.8409 18.3668 18.7579 18.3201 18.7011 18.2858 18.6443 18.2515 18.538 18.1901 18.465 18.1494 18.1169 17.9556 17.6738 17.697 17.5942 17.6412 17.5456 17.6072 17.4653 17.5575 17.4157 17.5308 17.2546 17.4441 16.5278 16.9589 16.0843 16.6421 15.9308 16.5325 15.7938 16.4428 15.7797 16.4428 15.7656 16.4428 15.7496 16.4319 15.7441 16.4186 15.7388 16.4053 15.5498 16.258 15.3244 16.0913 15.0989 15.9246 14.8863 15.7619 14.8521 15.7297 14.8177 15.6976 14.7448 15.6435 14.69 15.6096L14.5904 15.5478 14.5424 15.608C14.2433 15.9835 14.1108 16.1126 13.9994 16.1372 13.9544 16.1471 13.9104 16.1668 13.9017 16.1809 13.8798 16.2164 13.546 16.2134 13.483 16.1771 13.4548 16.1609 13.3985 16.1347 13.3579 16.1189 13.3173 16.1032 13.2177 16.0502 13.1365 16.0012 13.0553 15.9523 12.969 15.9029 12.9447 15.8916 12.8247 15.8356 11.6691 15.1081 11.6162 15.0554 11.6081 15.0472 11.535 14.9946 11.4539 14.9383 11.3727 14.8821 11.2887 14.819 11.2673 14.7981 11.2458 14.7772 11.2191 14.7601 11.2079 14.7601 11.1967 14.7601 11.1545 14.7302 11.114 14.6937 11.0736 14.6572 10.9408 14.5485 10.8191 14.4523 10.5332 14.2262 9.7583 13.4512 9.53306 13.1661 9.43688 13.0443 9.35016 12.938 9.34036 12.9299 9.33051 12.9218 9.24117 12.8022 9.1418 12.6642 9.04242 12.5262 8.95074 12.3997 8.93812 12.3831 8.81114 12.2164 8.19141 11.2259 8.01502 10.9078 7.89473 10.6908 7.88269 10.6676 7.8248 10.5416 7.77478 10.4328 7.76147 10.11 7.80586 10.0826 7.82081 10.0733 7.84139 10.0281 7.85147 9.98203 7.87008 9.89742 7.99622 9.76013 8.2657 9.53133 8.34684 9.46237 8.41186 9.39183 8.41012 9.37458 8.40731 9.34645 7.73827 8.43802 7.59872 8.27283 7.56778 8.23617 7.54242 8.19952 7.54242 8.19136 7.54242 8.1832 7.47169 8.08036 7.3852 7.9628 7.15833 7.65441 6.42066 6.54745 6.42066 6.51544 6.42066 6.50761 6.36923 6.42328 6.30637 6.32808 6.24352 6.23287 6.14855 6.07528 6.0953 5.97787 6.04209 5.88042 5.95734 5.73398 5.907 5.65238 5.8567 5.57077 5.78227 5.43792 5.74172 5.35716 5.70113 5.27639 5.66123 5.20369 5.65308 5.19558 5.64492 5.18747 5.61947 5.1443 5.59645 5.09963 5.53509 4.98061 5.47392 4.99955 5.35809 5.1735 5.30133 5.25872 5.20828 5.39484 5.15133 5.47603 5.00433 5.68538 4.99448 5.70262 4.79738 6.09469 4.69978 6.2888 4.61993 6.4688 4.61993 6.49467 4.61993 6.52055 4.60937 6.5543 4.59647 6.56972 4.58357 6.58519 4.55067 6.67083 4.52336 6.76013 4.49606 6.84947 4.45348 6.98606 4.42874 7.06378 4.40401 7.14145 4.38376 7.24837 4.38376 7.30139 4.38376 7.35441 4.36827 7.41328 4.34933 7.43222 4.32328 7.45828 4.32298 7.52616 4.34809 7.71117 4.36635 7.84566 4.39487 8.0753 4.41147 8.22141 4.44788 8.54189 4.48226 8.74406 4.54701 9.01847 4.57383 9.13209 4.61205 9.29817 4.63197 9.38747 4.65188 9.47677 4.67534 9.56972 4.68412 9.59409 4.69289 9.61847 4.72345 9.71808 4.752 9.81549 4.78055 9.91289 4.81481 10.0192 4.82817 10.0516 4.84153 10.0841 4.88194 10.2037 4.91798 10.3173 4.95403 10.431 4.99472 10.5366 5.00836 10.552 5.02205 10.5675 5.0332 10.5974 5.0332 10.6186 5.0332 10.6398 5.06644 10.7259 5.10703 10.8101 5.14758 10.8942 5.18081 10.9736 5.18081 10.9866 5.18081 11.0105 5.40722 11.5023 5.50462 11.69 5.72686 12.1183 5.83706 12.3207 5.9385 12.4871 6.00286 12.5926 6.0645 12.6989 6.07552 12.7232 6.0952 12.7668 6.1477 12.8522 6.19247 12.9135 6.20494 12.9307 6.28805 13.0552 6.37716 13.1904 6.55664 13.4626 7.09073 14.1972 7.14291 14.2435 7.16119 14.2598 7.19545 14.3009 7.21908 14.3348 7.27688 14.418 7.48078 14.6634 7.57195 14.7594 7.61255 14.8022 7.69064 14.8896 7.74553 14.9536 8.10605 15.3746 8.96967 16.2065 9.50555 16.649 9.58673 16.716 9.67969 16.7946 9.71217 16.8234 9.82195 16.9212 10.7438 17.5818 10.9668 17.7226 11.2696 17.9138 11.2453 17.8989 11.5425 18.0741 11.6886 18.1603 11.9277 18.2901 12.0738 18.3626 12.2199 18.4351 12.3439 18.5044 12.3493 18.5166 12.3547 18.5288 12.375 18.5387 12.3944 18.5387 12.4138 18.5387 12.5024 18.576 12.5912 18.6216 12.6801 18.6671 12.7993 18.7223 12.8561 18.7441 12.9129 18.766 13.0433 18.8217 13.146 18.8679 13.2486 18.9142 13.3434 18.952 13.3566 18.952 13.3699 18.952 13.4188 18.9719 13.4653 18.9961 13.5118 19.0204 13.5715 19.0403 13.5981 19.0404 13.6246 19.0405 13.6845 19.0605 13.731 19.0847 13.7775 19.1089 13.838 19.1289 13.8654 19.129 13.8929 19.1291 13.9226 19.1409 13.9315 19.1553 13.9403 19.1696 13.9843 19.1883 14.0292 19.1967 14.074 19.2052 14.1838 19.2343 14.2731 19.2615 14.4413 19.3126 14.6134 19.3566 14.9668 19.4387 15.1571 19.4829 15.2654 19.5033 15.6753 19.5723 15.7565 19.586 15.9092 19.5995 16.0148 19.6023 16.1203 19.605 16.2398 19.618 16.2804 19.631 16.382 19.6635 16.5393 19.6659 16.5583 19.6351ZM19.3483 17.9409C19.3797 17.8719 19.4272 17.7358 19.4541 17.6384 19.4808 17.541 19.515 17.4204 19.53 17.3706 19.5545 17.2888 19.6015 16.8751 19.6354 16.4428 19.6539 16.2071 19.5968 16.1347 19.202 15.8927 19.0202 15.7812 18.8364 15.6669 18.7936 15.6387 18.7508 15.6105 18.696 15.5784 18.6716 15.5675 18.6473 15.5565 18.5877 15.5198 18.5393 15.486 18.4142 15.3983 18.3398 15.3543 18.2805 15.3328 18.252 15.3225 18.2288 15.304 18.2288 15.2915 18.2288 15.279 18.2055 15.2609 18.1771 15.251 18.1487 15.2412 18.0856 15.2066 18.0369 15.1741 17.9882 15.1416 17.9284 15.1059 17.904 15.0947 17.8797 15.0836 17.8531 15.0658 17.845 15.0553 17.8185 15.0208 16.3568 14.1324 16.2593 14.0915 16.0146 13.9889 15.8024 14.0758 15.557 14.3791 15.4598 14.4994 15.3735 14.6044 15.3654 14.6125 15.3572 14.6207 15.2843 14.707 15.2032 14.8044 15.1221 14.9018 15.0258 15.0146 14.9891 15.055 14.9525 15.0955 14.9225 15.1498 14.9225 15.1757 14.9225 15.2308 15.1919 15.4445 15.9702 16.007 16.2788 16.2301 16.5474 16.426 16.567 16.4424 16.5866 16.4589 16.61 16.4723 16.6189 16.4723 16.6279 16.4723 16.6867 16.5089 16.7495 16.5535 16.897 16.6582 16.9328 16.6825 17.1808 16.8462 17.4261 17.008 18.3425 17.5748 18.4059 17.6038 18.4303 17.615 18.4967 17.6524 18.5535 17.6869 18.6103 17.7214 18.7697 17.8095 18.9077 17.8828 19.0457 17.956 19.1713 18.0273 19.1867 18.0412 19.2443 18.093 19.2928 18.0629 19.3483 17.9409ZM9.10139 8.85C9.24249 8.733 9.36459 8.63002 9.3727 8.62116 9.38081 8.6123 9.48586 8.52548 9.60614 8.42822 9.90192 8.18902 9.99187 7.98103 9.9022 7.74361 9.88491 7.69791 9.67819 7.34836 9.44278 6.9668 9.20733 6.58523 8.99897 6.24652 8.9797 6.21403 8.96044 6.18155 8.93705 6.14836 8.92772 6.1402 8.91844 6.13209 8.9017 6.10552 8.8905 6.08119 8.87934 6.05681 8.84363 5.99705 8.81114 5.94834 8.77866 5.89964 8.74406 5.83655 8.73422 5.80814 8.72437 5.77969 8.70619 5.75644 8.69372 5.75644 8.6813 5.75644 8.66269 5.73319 8.65242 5.70478 8.63095 5.64544 8.58694 5.571 8.49928 5.44589 8.46539 5.39752 8.42869 5.33798 8.41777 5.31366 8.40684 5.28928 8.37478 5.23439 8.34652 5.19159 8.3183 5.14884 8.20402 4.96505 8.09255 4.78322 7.85058 4.3884 7.77816 4.33136 7.54242 4.34983 7.10681 4.38396 6.69628 4.43078 6.61467 4.45565 6.5648 4.47084 6.4642 4.49867 6.39112 4.51749 6.31809 4.53631 6.21844 4.56852 6.16973 4.58905 6.12103 4.60959 6.04467 4.64126 6 4.65943 5.95533 4.6776 5.91881 4.70573 5.91881 4.72195 5.91881 4.75987 6.17442 5.23284 6.32203 5.46806 6.36005 5.52863 6.39112 5.58464 6.39112 5.59261 6.39112 5.63142 7.21584 6.94373 7.30495 7.04672 7.32192 7.06631 7.3358 7.09097 7.3358 7.10152 7.3358 7.11206 7.37564 7.17098 7.42434 7.23248 7.47305 7.29398 7.51294 7.35291 7.51294 7.36341 7.51294 7.37395 7.52634 7.39861 7.5428 7.4182 7.5592 7.43784 7.75514 7.70639 7.97822 8.01502 8.52567 8.77252 8.75433 9.06272 8.80359 9.06272 8.82628 9.06272 8.9603 8.967 9.10139 8.85Z" fill="#004BA6"/><path d="M11.8967 23.9705C11.8857 23.9527 11.6793 23.9409 11.3766 23.9409 11.1006 23.9409 10.8818 23.9295 10.8905 23.9155 10.9044 23.893 10.5306 23.8504 10.2657 23.8443 10.2129 23.8431 10.1697 23.8311 10.1697 23.8177 10.1697 23.8043 10.1108 23.7934 10.0387 23.7934 9.96652 23.7934 9.90019 23.7815 9.89119 23.7669 9.88223 23.7524 9.76852 23.7311 9.63853 23.7196 9.50855 23.7081 9.40223 23.6876 9.40223 23.674 9.40223 23.6604 9.30947 23.6402 9.19617 23.629 9.08283 23.6179 8.99634 23.5986 9.00398 23.5863 9.01163 23.5739 8.98144 23.5562 8.93695 23.547 8.58356 23.4737 8.51663 23.4561 8.51663 23.4363 8.51663 23.424 8.44369 23.4047 8.35458 23.3936 8.26547 23.3825 8.19797 23.3646 8.20463 23.3538 8.21128 23.3431 8.13473 23.309 8.03456 23.2781 7.93434 23.2473 7.8398 23.2111 7.82438 23.1977 7.80891 23.1844 7.77572 23.1734 7.75055 23.1733 7.72538 23.1732 7.66917 23.1545 7.62562 23.1317 7.58203 23.109 7.50567 23.0815 7.45584 23.0706 7.40606 23.0596 7.36533 23.0406 7.36533 23.0283 7.36533 23.016 7.29225 22.9811 7.20295 22.9507 7.11366 22.9204 7.04058 22.8861 7.04058 22.8744 7.04058 22.8629 6.99741 22.844 6.94467 22.8326 6.89189 22.8211 6.84206 22.8028 6.83395 22.7919 6.82584 22.7809 6.65977 22.6929 6.46495 22.5963 6.27009 22.4997 6.09314 22.404 6.07167 22.3837 6.05025 22.3635 6.01369 22.3469 5.99053 22.3469 5.96733 22.3469 5.94834 22.3351 5.94834 22.3208 5.94834 22.3065 5.92509 22.2869 5.89669 22.2773 5.84372 22.2596 5.73853 22.1973 5.71219 22.1682 5.70408 22.1592 5.64427 22.1201 5.57934 22.0812 5.51437 22.0423 5.45461 22.0032 5.4465 21.9942 5.42662 21.9722 5.32406 21.9083 5.26936 21.8839 5.24503 21.873 5.21845 21.8564 5.21034 21.8469 5.20223 21.8375 5.14584 21.7966 5.08509 21.7562 5.0243 21.7157 4.97447 21.6727 4.97438 21.6605 4.97428 21.6483 4.95427 21.6384 4.92989 21.6384 4.90552 21.6384 4.8855 21.6284 4.88541 21.6162 4.88531 21.6041 4.83548 21.561 4.77469 21.5205 4.71394 21.4801 4.65757 21.4399 4.64945 21.4313 4.64133 21.4225 4.5771 21.3706 4.50673 21.3158 4.32604 21.1751 4.25625 21.1152 4.04936 20.923 3.94915 20.83 3.85827 20.7536 3.8474 20.7533 3.82383 20.7527 3.32793 20.2577 3.29774 20.2047 3.2862 20.1844 3.19041 20.0746 3.08487 19.9607 2.87015 19.729 2.81311 19.6628 2.66909 19.4785 2.61411 19.4081 2.55564 19.3356 2.53917 19.3173 2.5227 19.299 2.4893 19.2541 2.46495 19.2177 2.44059 19.1813 2.40406 19.1341 2.38376 19.1129 2.36347 19.0917 2.34686 19.0601 2.34686 19.0427 2.34686 19.0253 2.3369 19.011 2.32472 19.0109 2.31255 19.0108 2.26949 18.9609 2.22905 18.9002 2.1886 18.8394 2.14778 18.783 2.13833 18.7749 2.12888 18.7668 2.11224 18.7402 2.10135 18.7159 2.07869 18.6652 2.01451 18.5606 1.99262 18.5387 1.94815 18.4943 1.84502 18.3301 1.84502 18.3038 1.84502 18.2869 1.83488 18.273 1.8225 18.273 1.79995 18.273 1.74663 18.1856 1.71002 18.0885 1.6993 18.0601 1.6788 18.0369 1.66445 18.0369 1.65011 18.0369 1.63838 18.0179 1.63838 17.9948 1.63838 17.9715 1.62177 17.935 1.60148 17.9136 1.58118 17.8921 1.4854 17.7151 1.38863 17.5203 1.29185 17.3255 1.20218 17.1616 1.18936 17.1562 1.17654 17.1508 1.16605 17.1263 1.16605 17.1017 1.16605 17.0772 1.14685 17.0218 1.12338 16.9787 1.09991 16.9356 1.05862 16.8472 1.03163 16.7823 1.00463 16.7174 0.965039 16.6244 0.943645 16.5757 0.832495 16.3226 0.811809 16.2677 0.811809 16.2261 0.811809 16.2011 0.798525 16.1724 0.782288 16.1624 0.76605 16.1523 0.752686 16.1217 0.752588 16.0942 0.752489 16.0667 0.732558 16.0062 0.708305 15.9597 0.684052 15.9132 0.664205 15.8493 0.664205 15.8178 0.664205 15.7862 0.652434 15.7676 0.638044 15.7765 0.623658 15.7854 0.602775 15.7198 0.591642 15.6307 0.580509 15.5415 0.560316 15.4687 0.546773 15.4687 0.533227 15.4687 0.513014 15.4022 0.501848 15.321 0.490688 15.2399 0.469514 15.1661 0.454799 15.157 0.440084 15.1479 0.428044 15.108 0.428044 15.0684 0.428044 15.0287 0.416108 14.9963 0.40152 14.9963 0.386932 14.9963 0.365657 14.9033 0.354244 14.7897 0.34283 14.676 0.323272 14.583 0.310781 14.583 0.298291 14.583 0.278607 14.487 0.26704 14.3696 0.255472 14.2522 0.237151 14.1426 0.226325 14.1261 0.201065 14.0874 0.138219 13.6355 0.114381 13.321 0.104226 13.1871 0.0842991 13.0775 0.0700988 13.0775 0.0558989 13.0775 0.0421935 12.8483 0.0396427 12.5683 0.0366679 12.2416 0.0277459 12.112 0.0147601 12.2066 0.000371909 12.3115-0.00548466 12.2518-0.00548466 12-0.00548466 11.7482 0.000371909 11.6885 0.0147601 11.7934 0.0277459 11.888 0.0366679 11.7584 0.0396427 11.4317 0.0421935 11.1517 0.0558989 10.9225 0.0700988 10.9225 0.0842991 10.9225 0.104226 10.8129 0.114381 10.679 0.138219 10.3645 0.201065 9.91261 0.226325 9.87394 0.237151 9.85739 0.255472 9.7478 0.26704 9.63042 0.278607 9.513 0.298291 9.41695 0.310781 9.41695 0.323272 9.41695 0.34283 9.324 0.354244 9.21033 0.365657 9.09666 0.386932 9.0037 0.40152 9.0037 0.416108 9.0037 0.428044 8.97127 0.428044 8.93161 0.428044 8.892 0.440084 8.85211 0.454799 8.84302 0.469514 8.83392 0.490683 8.76009 0.501844 8.67895 0.513005 8.59781 0.533789 8.52422 0.548034 8.51541 0.56228 8.50664 0.582675 8.43356 0.593353 8.35303 0.604036 8.2725 0.624347 8.20664 0.638489 8.20664 0.652636 8.20664 0.664205 8.18822 0.664205 8.16572 0.664205 8.14322 0.684052 8.08678 0.708305 8.04028 0.732558 7.99378 0.752484 7.93327 0.752588 7.9058 0.752686 7.87833 0.76605 7.84767 0.782288 7.83764 0.798525 7.82761 0.811809 7.79892 0.811809 7.77394 0.811809 7.73227 0.832495 7.67737 0.943645 7.42434 0.965039 7.37564 1.00463 7.28264 1.03163 7.21772 1.05862 7.15275 1.09991 7.06439 1.12338 7.02127 1.14685 6.97819 1.16605 6.92283 1.16605 6.89827 1.16605 6.8737 1.17654 6.84919 1.18936 6.8438 1.20218 6.83836 1.29185 6.67453 1.38863 6.47972 1.4854 6.28486 1.58118 6.10791 1.60148 6.08644 1.62177 6.06502 1.63838 6.02845 1.63838 6.00525 1.63838 5.98209 1.64851 5.96311 1.6609 5.96311 1.68345 5.96311 1.73677 5.87564 1.77338 5.77861 1.7841 5.7502 1.8046 5.72695 1.81894 5.72695 1.83329 5.72695 1.84502 5.71312 1.84502 5.6962 1.84502 5.66991 1.94815 5.5057 1.99262 5.46127 2.01377 5.44012 2.07799 5.33611 2.10202 5.28412 2.12575 5.2328 2.13693 5.21761 2.25728 5.07361 2.30655 5.01464 2.34686 4.95155 2.34686 4.93336 2.34686 4.91522 2.35683 4.90027 2.369 4.90017 2.38118 4.90008 2.42423 4.85025 2.46468 4.78945 2.50513 4.7287 2.54532 4.67233 2.554 4.66421 2.56269 4.65609 2.61463 4.59187 2.66943 4.52148 2.81013 4.34079 2.87005 4.27102 3.06219 4.06412 3.15526 3.96391 3.23164 3.87325 3.23194 3.86266 3.23264 3.8375 3.82274 3.2474 3.8479 3.24669 3.85849 3.2464 3.94915 3.17002 4.04936 3.07695 4.25625 2.88481 4.32604 2.82488 4.50673 2.68419 4.5771 2.62939 4.64133 2.57745 4.64945 2.56876 4.65757 2.56008 4.71394 2.51989 4.77469 2.47944 4.83548 2.439 4.88531 2.39594 4.88541 2.38376 4.8855 2.37158 4.90552 2.36162 4.92989 2.36162 4.95427 2.36162 4.97419 2.35101 4.97419 2.33804 4.97419 2.32507 5.02697 2.28189 5.09147 2.2421 5.15597 2.2023 5.20913 2.15978 5.20955 2.1476 5.20997 2.13542 5.22502 2.12546 5.24297 2.12546 5.26092 2.12546 5.32411 2.08893 5.38331 2.04428 5.50631 1.95155 5.58938 1.89762 5.65312 1.86912 5.6775 1.85823 5.70408 1.84171 5.71219 1.83241 5.73755 1.80331 5.84273 1.74076 5.89669 1.72264 5.92509 1.7131 5.94834 1.69356 5.94834 1.67921 5.94834 1.66487 5.96733 1.65314 5.99053 1.65314 6.01369 1.65314 6.05025 1.63653 6.07167 1.61624 6.09314 1.59594 6.27009 1.50029 6.46495 1.40368 6.65977 1.30707 6.82584 1.21906 6.83395 1.20812 6.84206 1.19718 6.89189 1.17886 6.94467 1.16741 6.99741 1.15597 7.04058 1.13437 7.04058 1.11943 7.04058 1.10448 7.0552 1.09225 7.07302 1.09225 7.09088 1.09225 7.15397 1.07089 7.21327 1.04478 7.67658 0.840712 7.71169 0.82657 7.755 0.82657 7.77773 0.82657 7.80891 0.816014 7.82438 0.803109 7.8398 0.790209 7.92877 0.754842 8.02214 0.724514 8.11552 0.694191 8.19187 0.659962 8.19187 0.648455 8.19187 0.636947 8.25773 0.618792 8.33827 0.608114 8.4188 0.597431 8.49187 0.577041 8.50069 0.562795 8.50945 0.54855 8.58305 0.527766 8.66419 0.516605 8.74533 0.505444 8.8192 0.484275 8.8283 0.469561 8.83739 0.454844 8.87723 0.442804 8.91689 0.442804 8.9565 0.442804 8.98894 0.431237 8.98894 0.417098 8.98894 0.40296 9.08194 0.38223 9.19556 0.371031 9.30923 0.359831 9.40223 0.339322 9.40223 0.325455 9.40223 0.311587 9.50203 0.290886 9.62405 0.279453 9.74606 0.26802 9.85312 0.246961 9.86194 0.232654 9.8708 0.218348 9.94444 0.206642 10.0256 0.206642 10.1068 0.206642 10.1669 0.196359 10.1591 0.183791 10.1513 0.171223 10.2004 0.158648 10.2681 0.155848 10.6122 0.14161 10.9078 0.109125 10.9078 0.0855314 10.9078 0.0709617 11.1303 0.058837 11.4022 0.0585886 11.7324 0.0582867 11.882 0.0486277 11.8524 0.0295203 11.8207 0.00905634 11.8528 0.000775298 11.9648 0.000452039 12.0619 0.000172068 12.1146 0.0112368 12.1033 0.0295203 12.0915 0.0487467 12.2555 0.0590405 12.5739 0.0590405 12.8428 0.0590405 13.0627 0.0706589 13.0627 0.0848592 13.0627 0.107405 13.167 0.119932 13.6908 0.160313 13.7522 0.165041 13.8109 0.177399 13.8212 0.187776 13.8316 0.198152 13.9043 0.206642 13.9828 0.206642 14.0612 0.206642 14.1255 0.218365 14.1255 0.232694 14.1255 0.247023 14.2251 0.268082 14.3468 0.279493 14.4686 0.290904 14.5683 0.311043 14.5683 0.324246 14.5683 0.337449 14.6612 0.35759 14.7749 0.369004 14.8886 0.380417 14.9815 0.401692 14.9815 0.41628 14.9815 0.430868 15.014 0.442804 15.0536 0.442804 15.0932 0.442804 15.1331 0.454844 15.1422 0.469561 15.1513 0.484275 15.2251 0.505444 15.3063 0.516605 15.3874 0.527766 15.4605 0.547692 15.4687 0.560888 15.4768 0.574078 15.5498 0.594009 15.631 0.60517 15.7122 0.616331 15.7786 0.637505 15.7786 0.652219 15.7786 0.666928 15.797 0.678966 15.8195 0.678966 15.842 0.678966 15.8985 0.698812 15.945 0.723066 15.9915 0.747319 16.052 0.767245 16.0794 0.767344 16.1069 0.767442 16.1376 0.780811 16.1476 0.797048 16.1576 0.813286 16.1863 0.82657 16.2113 0.82657 16.2573 0.82657 16.403 0.883486 16.5559 0.961214 16.6019 0.984577 16.665 1.00369 16.6961 1.00369 16.7273 1.00369 16.7528 1.01697 16.7528 1.03321 16.7528 1.04945 16.7696 1.06273 16.7901 1.06273 16.8106 1.06273 16.877 1.0893 16.9376 1.12177 16.9982 1.15425 17.0666 1.18081 17.0897 1.18081 17.1127 1.18081 17.136 1.19116 17.1414 1.20382 17.1469 1.21648 17.2974 1.30095 17.476 1.39155 17.8514 1.58197 18.0013 1.66188 18.0221 1.68266 18.0441 1.70457 18.1486 1.76875 18.1993 1.79139 18.2236 1.80228 18.2502 1.8188 18.2583 1.82811 18.281 1.85411 18.3837 1.91574 18.4575 1.94768 18.4941 1.96348 18.524 1.98846 18.524 2.00321 18.524 2.01795 18.5472 2.03782 18.5756 2.04736 18.6348 2.06721 18.7244 2.12325 18.7831 2.17712 18.8053 2.19742 18.8364 2.21402 18.8522 2.21402 18.8681 2.21402 18.9118 2.24723 18.9495 2.28782 18.987 2.32841 19.0272 2.36162 19.0387 2.36162 19.0502 2.36162 19.0769 2.37823 19.0981 2.39852 19.1193 2.41882 19.1665 2.45535 19.203 2.47971 19.2394 2.50406 19.2842 2.53746 19.3025 2.55393 19.3208 2.5704 19.3934 2.62887 19.4638 2.68385 19.6459 2.82617 19.7153 2.88583 19.9211 3.07695 20.0213 3.17002 20.1127 3.2464 20.1242 3.24669 20.1502 3.24736 20.7378 3.8367 20.7385 3.86287 20.7388 3.87335 20.8152 3.96391 20.9083 4.06412 21.0994 4.26991 21.159 4.33933 21.3014 4.52148 21.3564 4.59187 21.4148 4.66442 21.4313 4.68273 21.4478 4.70105 21.4812 4.74586 21.5055 4.78228 21.5299 4.81875 21.5664 4.86591 21.5867 4.88709 21.607 4.90833 21.6236 4.93505 21.6236 4.94653 21.6236 4.95802 21.6568 4.99819 21.6974 5.03578 21.738 5.07342 21.7712 5.11716 21.7712 5.133 21.7712 5.14884 21.7878 5.17997 21.8081 5.20209 21.862 5.26088 21.918 5.3505 21.9379 5.40961 21.9474 5.43802 21.9673 5.46127 21.982 5.46127 21.9968 5.46127 22.0218 5.49113 22.0376 5.52769 22.0671 5.59603 22.1289 5.70084 22.155 5.72695 22.1848 5.75677 22.2458 5.86125 22.2626 5.91145 22.2721 5.93986 22.2917 5.96311 22.306 5.96311 22.3204 5.96311 22.3321 5.98209 22.3321 6.00525 22.3321 6.02845 22.3487 6.06502 22.369 6.08644 22.3893 6.10791 22.4851 6.28486 22.5818 6.47972 22.6786 6.67453 22.7683 6.83836 22.7811 6.8438 22.794 6.84919 22.8044 6.8737 22.8044 6.89827 22.8044 6.92283 22.8236 6.97819 22.8471 7.02127 22.8706 7.06439 22.9118 7.15275 22.9388 7.21772 22.9658 7.28264 23.0055 7.37564 23.0268 7.42434 23.1371 7.67541 23.1587 7.73189 23.1587 7.76977 23.1587 7.7925 23.1696 7.82367 23.183 7.83909 23.1963 7.85452 23.2325 7.94911 23.2634 8.04933 23.2943 8.1495 23.3283 8.22605 23.3391 8.21939 23.3498 8.21273 23.3677 8.28 23.3788 8.36887 23.3899 8.45775 23.4105 8.53758 23.4247 8.54634 23.4389 8.55511 23.4594 8.62191 23.4704 8.6948 23.4813 8.76764 23.502 8.83458 23.5163 8.84344 23.5307 8.8523 23.5425 8.89866 23.5425 8.94637 23.5425 8.99414 23.5546 9.03319 23.5696 9.03319 23.5845 9.03319 23.6061 9.11977 23.6174 9.22552 23.6287 9.33127 23.6483 9.42422 23.661 9.43205 23.6737 9.43987 23.6934 9.53934 23.7048 9.65316 23.7162 9.76692 23.7375 9.86737 23.7521 9.87638 23.7667 9.88542 23.7786 9.94397 23.7786 10.0065 23.7786 10.0691 23.7985 10.2244 23.8229 10.3516 23.8472 10.4789 23.8672 10.6594 23.8672 10.7528 23.8672 10.8463 23.8804 10.9225 23.8967 10.9225 23.9151 10.9225 23.928 11.1201 23.931 11.4465 23.9341 11.7897 23.9427 11.9145 23.9557 11.8081 23.9735 11.6632 23.9758 11.6742 23.9775 11.9115 23.9787 12.0838 23.971 12.1512 23.9557 12.1033 23.9418 12.0599 23.9309 12.245 23.9291 12.5535 23.9275 12.8417 23.9147 13.0775 23.9008 13.0775 23.879 13.0775 23.8431 13.3917 23.8275 13.7196 23.8249 13.7723 23.8129 13.8155 23.8007 13.8155 23.7885 13.8155 23.7786 13.8811 23.7786 13.9613 23.7786 14.0416 23.7664 14.1147 23.7516 14.1239 23.7367 14.1331 23.7152 14.2402 23.7038 14.3618 23.6924 14.4835 23.6727 14.583 23.6601 14.583 23.6474 14.583 23.6277 14.676 23.6162 14.7897 23.6048 14.9033 23.5836 14.9963 23.5689 14.9963 23.5544 14.9963 23.5425 15.0287 23.5425 15.0684 23.5425 15.108 23.5304 15.1479 23.5157 15.157 23.501 15.1661 23.4798 15.2399 23.4686 15.321 23.4575 15.4022 23.4373 15.4687 23.4237 15.4687 23.4102 15.4687 23.39 15.5415 23.3789 15.6307 23.3677 15.7198 23.3498 15.7873 23.3391 15.7806 23.3283 15.774 23.2943 15.8505 23.2634 15.9507 23.2325 16.0509 23.1963 16.1455 23.183 16.1609 23.1696 16.1763 23.1587 16.2075 23.1587 16.2302 23.1587 16.2681 23.1371 16.3246 23.0268 16.5757 23.0055 16.6244 22.9658 16.7174 22.9388 16.7823 22.9118 16.8472 22.8706 16.9356 22.8471 16.9787 22.8236 17.0218 22.8044 17.0772 22.8044 17.1017 22.8044 17.1263 22.794 17.1508 22.7811 17.1562 22.7683 17.1616 22.6786 17.3255 22.5818 17.5203 22.4851 17.7151 22.3893 17.8921 22.369 17.9136 22.3487 17.935 22.3321 17.9715 22.3321 17.9948 22.3321 18.0179 22.322 18.0369 22.3096 18.0369 22.287 18.0369 22.2337 18.1244 22.1971 18.2214 22.1864 18.2498 22.1659 18.273 22.1515 18.273 22.1372 18.273 22.1255 18.2869 22.1255 18.3038 22.1255 18.3301 22.0223 18.4943 21.9779 18.5387 21.9567 18.5599 21.8925 18.6639 21.8685 18.7159 21.8447 18.7672 21.8335 18.7824 21.7132 18.9264 21.6639 18.9854 21.6236 19.0428 21.6236 19.054 21.6236 19.0652 21.607 19.0917 21.5867 19.1129 21.5664 19.1341 21.5299 19.1813 21.5055 19.2177 21.4812 19.2541 21.4478 19.299 21.4313 19.3173 21.4148 19.3356 21.3564 19.4081 21.3014 19.4785 21.159 19.6607 21.0994 19.7301 20.9083 19.9359 20.8152 20.0361 20.7389 20.1268 20.7385 20.1374 20.7378 20.1625 20.1477 20.7526 20.1226 20.7533 20.112 20.7536 20.0213 20.83 19.9211 20.923 19.7153 21.1142 19.6459 21.1738 19.4638 21.3161 19.3934 21.3712 19.3208 21.4296 19.3025 21.4461 19.2842 21.4626 19.2394 21.4959 19.203 21.5203 19.1665 21.5446 19.1193 21.5812 19.0981 21.6015 19.0769 21.6217 19.0453 21.6384 19.0279 21.6384 19.0105 21.6384 18.9962 21.6483 18.9961 21.6605 18.996 21.6727 18.9462 21.7157 18.8854 21.7562 18.8246 21.7966 18.7683 21.8365 18.7601 21.8447 18.7387 21.8666 18.6344 21.9308 18.583 21.9538 18.5587 21.9646 18.5321 21.9811 18.524 21.9905 18.4889 22.0307 18.317 22.1402 18.289 22.1402 18.2721 22.1402 18.2583 22.1504 18.2583 22.1627 18.2583 22.1853 18.1708 22.2386 18.0738 22.2752 18.0454 22.2859 18.0221 22.3065 18.0221 22.3208 18.0221 22.3351 18.0031 22.3469 17.98 22.3469 17.9568 22.3469 17.9202 22.3635 17.8988 22.3837 17.8773 22.404 17.7004 22.4999 17.5055 22.5966 17.3107 22.6934 17.1469 22.7831 17.1414 22.7959 17.136 22.8087 17.1132 22.8192 17.0907 22.8192 17.055 22.8192 16.9096 22.8824 16.7458 22.9692 16.7176 22.9841 16.6744 22.9963 16.6499 22.9963 16.6252 22.9963 16.6052 23.0085 16.6052 23.0235 16.6052 23.0385 16.5644 23.0596 16.5146 23.0706 16.4648 23.0815 16.3884 23.109 16.3449 23.1317 16.3013 23.1545 16.2432 23.1732 16.2157 23.1733 16.1883 23.1734 16.1576 23.1867 16.1476 23.2029 16.1376 23.2192 16.1069 23.2326 16.0794 23.2327 16.052 23.2327 15.9915 23.2527 15.945 23.277 15.8985 23.3012 15.8346 23.321 15.803 23.321 15.7714 23.321 15.753 23.3331 15.7621 23.3478 15.7712 23.3625 15.7089 23.3839 15.6236 23.3954 15.5384 23.4068 15.4553 23.4262 15.4391 23.4383 15.4229 23.4505 15.3698 23.4693 15.321 23.48 15.1355 23.5209 14.9815 23.5709 14.9815 23.5902 14.9815 23.6012 14.8885 23.6196 14.7748 23.631 14.6611 23.6424 14.5615 23.6624 14.5535 23.6753 14.5455 23.6882 14.4459 23.7081 14.3321 23.7195 14.2183 23.731 14.1179 23.7523 14.1089 23.7668 14.0998 23.7814 14.0357 23.7934 13.9663 23.7934 13.8969 23.7934 13.8315 23.802 13.8209 23.8125 13.8104 23.8231 13.7584 23.8352 13.7053 23.8395 13.6522 23.8438 13.486 23.8569 13.3358 23.8687 13.1856 23.8805 13.0627 23.9016 13.0627 23.9155 13.0627 23.9295 12.8436 23.9409 12.5756 23.9409 12.2706 23.9409 12.0885 23.952 12.0885 23.9705 12.0885 23.9867 12.0495 24 12.0017 24 11.954 24 11.9067 23.9867 11.8967 23.9705ZM16.8266 19.5989C16.924 19.5769 17.0103 19.5505 17.0184 19.5404 17.0265 19.5302 17.0923 19.5127 17.1646 19.5014 17.2368 19.4901 17.3099 19.4701 17.327 19.457 17.344 19.4438 17.4277 19.4086 17.5129 19.3786 17.5981 19.3486 17.6679 19.3152 17.6679 19.3042 17.6679 19.2933 17.7199 19.276 17.7835 19.2658 17.8471 19.2556 17.9035 19.2374 17.909 19.2251 17.9144 19.2129 17.972 19.1764 18.0369 19.144 18.1019 19.1115 18.1725 19.0684 18.194 19.048 18.2154 19.0277 18.252 19.011 18.2752 19.011 18.2984 19.011 18.3173 18.9992 18.3173 18.9847 18.3173 18.9703 18.3505 18.9501 18.3911 18.9399 18.4317 18.9297 18.465 18.9083 18.465 18.8924 18.465 18.8765 18.4788 18.8635 18.4957 18.8635 18.5247 18.8635 18.558 18.8404 18.6557 18.7528 18.6784 18.7325 18.705 18.7159 18.715 18.7159 18.725 18.7159 18.7918 18.6727 18.8636 18.6199 19.0436 18.4875 19.0372 18.4252 18.834 18.3321 18.7453 18.2915 18.6725 18.2483 18.6722 18.2362 18.6719 18.224 18.645 18.214 18.6126 18.214 18.5801 18.214 18.5535 18.2007 18.5535 18.1845 18.5535 18.1683 18.5352 18.155 18.5129 18.155 18.4905 18.155 18.4563 18.1359 18.437 18.1126 18.4177 18.0893 18.3629 18.0617 18.3153 18.0512 18.2677 18.0408 18.2288 18.02 18.2288 18.005 18.2288 17.9901 18.2089 17.9779 18.1845 17.9779 18.1601 17.9779 18.1402 17.9648 18.1402 17.9489 18.1402 17.933 18.107 17.9116 18.0664 17.9014 18.0258 17.8913 17.9926 17.8726 17.9926 17.86 17.9926 17.8474 17.9694 17.8291 17.9409 17.8193 17.8764 17.7971 17.7067 17.6942 17.6129 17.6205 17.5738 17.5897 17.5171 17.5646 17.4868 17.5646 17.4565 17.5646 17.4317 17.5509 17.4317 17.5341 17.4317 17.5174 17.4085 17.4948 17.3801 17.484 17.3517 17.4731 17.3151 17.453 17.2989 17.4392 17.2827 17.4255 17.1232 17.3196 16.9447 17.2039 16.7661 17.0883 16.6133 16.986 16.6052 16.9765 16.597 16.9671 16.4908 16.8931 16.369 16.8121 16.2472 16.731 16.122 16.6416 16.0907 16.6132 16.0595 16.5848 16.0096 16.5539 15.98 16.5445 15.9504 16.5351 15.9262 16.515 15.9262 16.4999 15.9262 16.4847 15.9115 16.4723 15.8935 16.4723 15.8591 16.4723 15.6232 16.2967 15.6064 16.2585 15.601 16.2462 15.5798 16.2361 15.5593 16.2361 15.5388 16.2361 15.498 16.2096 15.4687 16.1771 15.4393 16.1446 15.4022 16.1181 15.3863 16.1181 15.3705 16.1181 15.336 16.0947 15.3097 16.066 15.2835 16.0374 15.2123 15.9809 15.1515 15.9405 15.0907 15.9002 15.0409 15.8572 15.0408 15.845 15.0407 15.8328 15.0281 15.8229 15.0129 15.8229 14.9977 15.8229 14.9415 15.783 14.8883 15.7343 14.8349 15.6856 14.7743 15.6458 14.7536 15.6458 14.7328 15.6458 14.7159 15.633 14.7159 15.6173 14.7159 15.6016 14.6876 15.5737 14.6531 15.5552 14.5998 15.5267 14.5797 15.533 14.5202 15.5971 14.4817 15.6387 14.4502 15.6808 14.4502 15.6906 14.4502 15.7004 14.358 15.8008 14.2454 15.9136 14.1123 16.047 14.0088 16.1252 13.9496 16.137 13.8995 16.147 13.8514 16.1668 13.8427 16.1809 13.8217 16.2148 13.5351 16.2143 13.5351 16.1804 13.5351 16.166 13.4886 16.1454 13.4318 16.1348 13.3749 16.1241 13.3284 16.1027 13.3284 16.0872 13.3284 16.0717 13.3153 16.059 13.2993 16.059 13.2833 16.059 13.2055 16.0192 13.1263 15.9705 13.0472 15.9218 12.9606 15.8819 12.934 15.8819 12.9074 15.8819 12.8856 15.8684 12.8856 15.8519 12.8856 15.8354 12.8358 15.7989 12.7749 15.7708 12.714 15.7426 12.6536 15.7029 12.6406 15.6826 12.6276 15.6623 12.6031 15.6458 12.5861 15.6458 12.5692 15.6458 12.5136 15.6159 12.4628 15.5793 12.3383 15.49 12.2612 15.4438 12.1993 15.4214 12.1709 15.4111 12.1476 15.3925 12.1476 15.3801 12.1476 15.3676 12.1244 15.3496 12.096 15.3401 12.0368 15.3202 11.9472 15.2642 11.8884 15.2103 11.8663 15.19 11.8292 15.1734 11.806 15.1734 11.7828 15.1734 11.7638 15.1627 11.7638 15.1496 11.7638 15.1207 11.5081 14.9373 11.4678 14.9373 11.452 14.9373 11.4391 14.9249 11.4391 14.9097 11.4391 14.8946 11.4097 14.8729 11.3738 14.8615 11.3379 14.8501 11.2838 14.8094 11.2536 14.7709 11.2234 14.7325 11.1846 14.7011 11.1673 14.7011 11.15 14.7011 11.1071 14.67 11.0719 14.632 11.0366 14.594 10.9869 14.5508 10.9614 14.536 10.8097 14.4483 10.0301 13.7163 9.81549 13.46 9.75867 13.3921 9.65573 13.2759 9.58673 13.2018 9.51773 13.1276 9.46125 13.057 9.46125 13.045 9.46125 13.0329 9.42141 12.9832 9.3727 12.9345 9.324 12.8857 9.28411 12.8325 9.28411 12.8162 9.28411 12.7999 9.2527 12.7619 9.21431 12.7317 9.17592 12.7014 9.13514 12.6473 9.12375 12.6114 9.11236 12.5755 9.09066 12.5461 9.07552 12.5461 9.06038 12.5461 9.04795 12.5333 9.04795 12.5175 9.04795 12.4771 8.86458 12.2214 8.83566 12.2214 8.82253 12.2214 8.8118 12.2024 8.8118 12.1793 8.8118 12.156 8.7952 12.119 8.77491 12.0968 8.72105 12.0381 8.66498 11.9484 8.64516 11.8893 8.63559 11.8609 8.61759 11.8376 8.60517 11.8376 8.5927 11.8376 8.57414 11.8144 8.56388 11.786 8.53706 11.7119 8.46741 11.5966 8.43656 11.5754 8.42208 11.5654 8.38702 11.5074 8.3587 11.4465 8.33039 11.3856 8.2972 11.3358 8.28497 11.3358 8.27278 11.3358 8.24564 11.2884 8.22473 11.2305 8.20378 11.1727 8.16792 11.1181 8.145 11.1093 8.12208 11.1005 8.10333 11.073 8.10333 11.0483 8.10333 10.9988 7.98689 10.7955 7.94958 10.7798 7.93673 10.7744 7.92577 10.7478 7.92525 10.7208 7.92473 10.6937 7.90481 10.6458 7.881 10.6143 7.85714 10.5828 7.83764 10.533 7.83764 10.5036 7.83764 10.4742 7.82438 10.4502 7.80811 10.4502 7.77216 10.4502 7.76878 10.2037 7.80375 10.1325 7.81763 10.1042 7.85377 10.0298 7.88405 9.96708 7.93327 9.86522 8.02467 9.77302 8.36517 9.48183 8.45241 9.40725 8.46042 9.38897 8.43052 9.33309 8.41177 9.29803 8.38364 9.26939 8.36798 9.26939 8.35228 9.26939 8.33948 9.25242 8.33948 9.23166 8.33948 9.21094 8.29964 9.15033 8.25094 9.09703 8.20223 9.04369 8.16234 8.98758 8.16234 8.97234 8.16234 8.95711 8.15241 8.94455 8.14022 8.94445 8.12803 8.94436 8.08505 8.89453 8.04469 8.83373 8.00433 8.77298 7.94784 8.70178 7.9192 8.67548 7.89056 8.64923 7.86717 8.61478 7.86717 8.59889 7.86717 8.58305 7.84059 8.54602 7.80811 8.51663 7.77563 8.48723 7.74909 8.44641 7.74909 8.42592 7.74909 8.40544 7.73902 8.38425 7.72673 8.37886 7.6973 8.36592 7.51289 8.12991 7.51289 8.1052 7.51289 8.08692 7.48327 8.04717 7.40222 7.9568 7.38192 7.93416 7.36533 7.90252 7.36533 7.88648 7.36533 7.87045 7.35525 7.85287 7.34292 7.84748 7.33059 7.84205 7.25423 7.73803 7.17319 7.61625 7.09214 7.49447 7.0192 7.3882 7.01105 7.38009 6.97748 7.34648 6.80377 7.08591 6.68639 6.89297 6.6172 6.77934 6.55237 6.67969 6.5423 6.67158 6.51558 6.65006 6.4545 6.54909 6.42056 6.4703 6.40434 6.43266 6.36117 6.35962 6.32461 6.30797 6.22209 6.16303 6.18431 6.10045 6.16542 6.0443 6.15591 6.01589 6.13781 5.99264 6.1252 5.99264 6.11264 5.99264 6.09478 5.96245 6.0855 5.92561 6.07627 5.88877 6.04214 5.83012 6.0097 5.7953 5.97727 5.76047 5.94206 5.69752 5.93152 5.65538 5.92092 5.61323 5.90081 5.5717 5.8868 5.56303 5.87283 5.55441 5.83847 5.49806 5.81044 5.43788 5.78245 5.37769 5.75208 5.32177 5.74298 5.31366 5.73389 5.30555 5.69334 5.22966 5.65289 5.14505 5.60433 5.04347 5.56087 4.99083 5.52502 4.99008 5.46722 4.98886 5.36053 5.09709 5.35894 5.15869 5.35837 5.17898 5.34422 5.19558 5.32748 5.19558 5.31075 5.19558 5.28816 5.21883 5.27733 5.24723 5.25806 5.29763 5.23387 5.33203 5.15869 5.41589 5.13839 5.43853 5.12175 5.47017 5.12175 5.4862 5.12175 5.50223 5.11017 5.51981 5.09602 5.5252 5.08181 5.53064 5.03072 5.60812 4.98244 5.69742 4.9342 5.78672 4.86937 5.9063 4.83848 5.96311 4.80759 6.01992 4.7723 6.07087 4.76011 6.07627 4.74788 6.0817 4.72959 6.13814 4.71942 6.20175 4.70925 6.26531 4.692 6.31734 4.68102 6.31734 4.67007 6.31734 4.63659 6.38709 4.60662 6.47231 4.57665 6.55758 4.5414 6.64125 4.52828 6.65831 4.51517 6.67533 4.49519 6.74841 4.4839 6.82064 4.4726 6.89292 4.45422 6.95869 4.44304 6.9668 4.3831 7.01034 4.29248 7.82288 4.34757 7.82288 4.3626 7.82288 4.38406 7.98487 4.39525 8.18287 4.40644 8.38088 4.42674 8.55689 4.44037 8.574 4.454 8.59116 4.47476 8.69817 4.4865 8.8118 4.49825 8.92547 4.51646 9.03173 4.52699 9.04795 4.5458 9.07697 4.60729 9.33914 4.63951 9.52767 4.64853 9.58045 4.66649 9.62362 4.67942 9.62362 4.69237 9.62362 4.71206 9.69005 4.72327 9.77123 4.73442 9.85242 4.75556 9.91884 4.77028 9.91884 4.785 9.91884 4.79705 9.95175 4.79705 9.99202 4.79705 10.0681 4.88095 10.3063 4.91686 10.3321 4.92816 10.3402 4.94686 10.4033 4.95839 10.4723 4.96992 10.5413 4.99148 10.5978 5.0063 10.5978 5.02111 10.5978 5.0332 10.619 5.0332 10.645 5.0332 10.671 5.05448 10.7407 5.0805 10.8 5.10652 10.8593 5.139 10.9343 5.15269 10.9668 5.16638 10.9993 5.20486 11.0882 5.23823 11.1645 5.27161 11.2407 5.29889 11.317 5.29889 11.3342 5.29889 11.3513 5.31216 11.3653 5.32842 11.3653 5.34464 11.3653 5.35795 11.3848 5.35795 11.4086 5.35795 11.4503 5.44584 11.6599 5.47603 11.69 5.48414 11.6982 5.53566 11.7945 5.59055 11.904 5.64539 12.0136 5.70183 12.1033 5.71598 12.1033 5.73014 12.1033 5.74228 12.1266 5.74298 12.155 5.74369 12.1834 5.77711 12.2598 5.81723 12.3247 5.85741 12.3897 5.89819 12.4661 5.90798 12.4945 5.91773 12.5229 5.93742 12.5461 5.95177 12.5461 5.96611 12.5461 5.97787 12.5632 5.97787 12.584 5.97787 12.6048 6.09075 12.7925 6.2288 13.0011 6.3668 13.2097 6.47972 13.3905 6.47972 13.4029 6.47972 13.4153 6.49964 13.4331 6.52397 13.4424 6.54834 13.4518 6.56827 13.4797 6.56827 13.5046 6.56827 13.5295 6.58064 13.5498 6.59578 13.5498 6.61092 13.5498 6.63103 13.5741 6.64041 13.6036 6.64983 13.6333 6.68058 13.6831 6.70884 13.7144 6.73706 13.7456 6.79336 13.821 6.83395 13.8817 6.87455 13.9425 6.91772 13.9923 6.92991 13.9924 6.94205 13.9925 6.95203 14.0077 6.95203 14.0261 6.95203 14.0446 6.98522 14.0904 7.02581 14.128 7.06641 14.1657 7.09964 14.2093 7.09964 14.225 7.09964 14.2408 7.15275 14.3073 7.21772 14.3729 7.28264 14.4385 7.3358 14.5053 7.3358 14.5214 7.3358 14.5374 7.35342 14.5612 7.37494 14.5742 7.39645 14.5872 7.47511 14.6734 7.54973 14.7659 7.85508 15.1441 8.76858 16.0574 9.21155 16.4273 9.3083 16.5082 9.39806 16.5912 9.41105 16.6118 9.42403 16.6325 9.4478 16.6494 9.46387 16.6494 9.47995 16.6494 9.54675 16.7026 9.61233 16.7675 9.67795 16.8325 9.74447 16.8856 9.76022 16.8856 9.77592 16.8856 9.81956 16.9188 9.8572 16.9594 9.8948 17 9.93956 17.0332 9.95662 17.0332 9.97373 17.0332 9.99211 17.0443 9.99755 17.0578 10.0125 17.0951 10.4572 17.417 10.4938 17.417 10.5114 17.417 10.5335 17.4369 10.5428 17.4613 10.5522 17.4856 10.5702 17.5055 10.5828 17.5055 10.5954 17.5055 10.764 17.6106 10.9574 17.739 11.1507 17.8674 11.3615 18.0011 11.4257 18.0361 11.4899 18.0711 11.5956 18.1315 11.6605 18.1703 11.7255 18.2092 11.8019 18.2415 11.8303 18.2423 11.8587 18.243 11.8819 18.2568 11.8819 18.273 11.8819 18.2893 11.9018 18.3026 11.9262 18.3026 11.9505 18.3026 11.9705 18.3127 11.9705 18.3251 11.9705 18.3375 12.0402 18.3802 12.1254 18.42 12.2107 18.4599 12.2871 18.4995 12.2952 18.5082 12.3234 18.5384 12.5336 18.6273 12.5767 18.6273 12.6005 18.6273 12.6199 18.6406 12.6199 18.6568 12.6199 18.6731 12.6339 18.6863 12.651 18.6863 12.6682 18.6863 12.7446 18.7136 12.8208 18.747 12.897 18.7804 12.986 18.8189 13.0185 18.8325 13.0509 18.8462 13.126 18.8787 13.1853 18.9047 13.2445 18.9307 13.3143 18.952 13.3403 18.952 13.3662 18.952 13.3875 18.9645 13.3875 18.9797 13.3875 18.995 13.4472 19.0164 13.5203 19.0274 13.5934 19.0383 13.6531 19.0591 13.6531 19.0735 13.6531 19.0879 13.6716 19.0996 13.6941 19.0996 13.7166 19.0996 13.773 19.1195 13.8195 19.1437 13.866 19.168 13.9406 19.1879 13.9852 19.188 14.0299 19.1881 14.0664 19.2002 14.0664 19.215 14.0664 19.2297 14.1329 19.2508 14.214 19.262 14.2952 19.2732 14.3616 19.2929 14.3616 19.3058 14.3616 19.3187 14.4048 19.3367 14.4576 19.3457 14.6511 19.3788 14.9086 19.4397 14.939 19.4595 14.9562 19.4708 15.0724 19.4892 15.1973 19.5005 15.3222 19.5118 15.4244 19.5325 15.4244 19.5465 15.4244 19.5605 15.4808 19.5731 15.5498 19.5745 15.6188 19.5759 15.7882 19.595 15.9262 19.6168 16.218 19.6629 16.5748 19.6558 16.8266 19.5989ZM19.362 17.966C19.3882 17.9108 19.4096 17.8452 19.4096 17.8201 19.4096 17.7952 19.4216 17.7673 19.4363 17.7582 19.4511 17.7491 19.4726 17.6719 19.4842 17.5867 19.4958 17.5015 19.5142 17.4251 19.5251 17.417 19.5569 17.3933 19.614 16.9337 19.5979 16.8314 19.5892 16.776 19.5959 16.738 19.6145 16.738 19.634 16.738 19.6457 16.6449 19.6457 16.4895 19.6457 16.232 19.5953 16.0804 19.4985 16.0468 19.4452 16.0282 19.3537 15.9698 19.298 15.9188 19.2759 15.8985 19.2388 15.8819 19.2156 15.8819 19.1924 15.8819 19.1734 15.8686 19.1734 15.8524 19.1734 15.8362 19.1535 15.8229 19.1292 15.8229 19.1048 15.8229 19.0849 15.8099 19.0849 15.7939 19.0849 15.778 19.0516 15.7566 19.011 15.7464 18.9705 15.7363 18.9373 15.7161 18.9373 15.7016 18.9373 15.6871 18.9183 15.6753 18.8951 15.6753 18.8719 15.6753 18.8348 15.6587 18.8127 15.6384 18.7539 15.5845 18.6643 15.5285 18.6052 15.5086 18.5767 15.4991 18.5535 15.4795 18.5535 15.4652 18.5535 15.4508 18.5397 15.4391 18.5228 15.4391 18.5059 15.4391 18.4561 15.4143 18.4121 15.384 18.2367 15.2633 17.9943 15.1132 17.9433 15.0937 17.9136 15.0824 17.8669 15.0525 17.8396 15.0273 17.8123 15.0022 17.7263 14.9483 17.6486 14.9078 17.5709 14.8672 17.4845 14.814 17.4567 14.7897 17.4289 14.7653 17.3422 14.7122 17.2639 14.6716 17.1857 14.631 17.1151 14.5901 17.107 14.5808 17.0989 14.5715 17.0458 14.5382 16.989 14.507 16.9321 14.4757 16.879 14.4435 16.8708 14.4354 16.8264 14.391 16.6622 14.2878 16.6359 14.2878 16.619 14.2878 16.6052 14.2761 16.6052 14.2618 16.6052 14.2474 16.5819 14.2272 16.5535 14.2168 16.5251 14.2064 16.4421 14.1651 16.369 14.1251 16.2105 14.0382 15.9724 14.027 15.8204 14.0991 15.7654 14.1252 15.6704 14.2069 15.6092 14.2806 15.5482 14.3543 15.4849 14.4294 15.4687 14.4474 15.4524 14.4654 15.3727 14.5597 15.2916 14.657 15.2104 14.7543 15.134 14.8384 15.1218 14.8438 15.1096 14.8492 15.0993 14.8691 15.0988 14.8881 15.0983 14.907 15.0588 14.961 15.0109 15.008 14.8293 15.1861 14.8337 15.1939 15.321 15.5564 15.4834 15.6772 15.6295 15.7867 15.6458 15.7998 15.662 15.8129 15.7284 15.8633 15.7934 15.9119 15.8583 15.9604 15.9374 16.02 15.9691 16.0444 16.0008 16.0687 16.0373 16.0886 16.0503 16.0886 16.0632 16.0886 16.098 16.1118 16.1277 16.1402 16.231 16.2392 16.3526 16.3247 16.3902 16.3247 16.411 16.3247 16.428 16.3366 16.428 16.3512 16.428 16.3657 16.4978 16.4219 16.583 16.4761 16.6683 16.5303 16.7424 16.5848 16.7478 16.5973 16.7533 16.6097 16.7745 16.6199 16.7949 16.6199 16.8154 16.6199 16.8707 16.6541 16.9179 16.6958 16.9651 16.7376 17.0303 16.784 17.0627 16.7991 17.1327 16.8315 17.2338 16.8936 17.2546 16.917 17.2906 16.9574 17.9562 17.358 17.9874 17.358 18.0065 17.358 18.0221 17.3706 18.0221 17.3861 18.0221 17.4015 18.072 17.4374 18.1328 17.4657 18.1937 17.494 18.2502 17.5262 18.2583 17.5372 18.2824 17.5699 18.5053 17.6827 18.5457 17.6827 18.5662 17.6827 18.583 17.6962 18.583 17.7127 18.583 17.7292 18.6329 17.7657 18.6937 17.7938 18.7546 17.822 18.8111 17.8532 18.8192 17.8632 18.8273 17.8732 18.8671 17.8916 18.9077 17.904 18.9483 17.9166 18.9882 17.9352 18.9963 17.9454 19.0389 17.9993 19.1681 18.0635 19.2365 18.0649 19.2967 18.0661 19.3251 18.0437 19.362 17.966ZM8.96597 8.99564C9.17878 8.81109 9.32198 8.69348 9.363 8.66949 9.38583 8.65617 9.44156 8.60967 9.48684 8.56617 9.53217 8.52267 9.62986 8.43708 9.70397 8.376 9.77803 8.31487 9.86002 8.21991 9.88613 8.16488 9.95831 8.01281 9.94702 7.77473 9.86016 7.61625 9.82013 7.54317 9.77888 7.46016 9.76847 7.43175 9.75806 7.40334 9.73786 7.38009 9.72352 7.38009 9.70917 7.38009 9.69741 7.36805 9.69741 7.35328 9.69741 7.33022 9.47967 6.97922 9.41133 6.89213 9.3982 6.87539 9.35423 6.79814 9.31364 6.72042 9.27305 6.6427 9.21994 6.55636 9.19556 6.52852 9.17123 6.50072 9.11808 6.41437 9.07748 6.33666 9.03689 6.25894 8.98308 6.17302 8.95791 6.14564 8.93273 6.11831 8.90287 6.07162 8.89153 6.04195 8.87203 5.99091 8.72194 5.74856 8.60119 5.57316 8.57091 5.52914 8.54611 5.47936 8.54611 5.46244 8.54611 5.44556 8.53439 5.43173 8.52005 5.43173 8.5057 5.43173 8.48616 5.40848 8.47664 5.38008 8.45677 5.32097 8.40075 5.23134 8.34684 5.17256 8.32655 5.15044 8.30995 5.11336 8.30995 5.09016 8.30995 5.06695 8.29814 5.04797 8.28366 5.04797 8.26917 5.04797 8.24897 5.01478 8.2388 4.97419 8.22863 4.93359 8.20725 4.90036 8.19131 4.90036 8.17537 4.90036 8.16234 4.88044 8.16234 4.85611 8.16234 4.83173 8.14997 4.81181 8.13483 4.81181 8.11969 4.81181 8.09798 4.78191 8.08659 4.74539 8.07516 4.70888 8.05767 4.67233 8.04769 4.66421 8.01844 4.64042 7.95544 4.53569 7.93659 4.47938 7.92698 4.45079 7.88752 4.41946 7.84889 4.40976 7.81022 4.40006 7.77858 4.38028 7.77858 4.3658 7.77858 4.35133 7.65239 4.33948 7.49817 4.33948 7.34391 4.33948 7.21772 4.35075 7.21772 4.36452 7.21772 4.37828 7.07569 4.39824 6.90206 4.40887 6.72848 4.41949 6.579 4.43963 6.56995 4.45364 6.56091 4.46764 6.47714 4.48849 6.38377 4.49998 6.29039 4.51146 6.21403 4.53318 6.21403 4.54825 6.21403 4.56332 6.19453 4.57565 6.17077 4.57565 6.14695 4.57565 6.08053 4.59803 6.02316 4.6254 5.94023 4.66494 5.91881 4.69219 5.91881 4.75823 5.91881 4.80394 5.93067 4.84134 5.94516 4.84134 5.95959 4.84134 5.9798 4.87453 5.98997 4.91512 6.00019 4.95572 6.02048 4.98891 6.03511 4.98891 6.04973 4.98891 6.0705 5.0288 6.08119 5.0775 6.09188 5.1262 6.1102 5.16605 6.12188 5.16605 6.13355 5.16605 6.16027 5.21339 6.18117 5.27128 6.20212 5.32917 6.23798 5.38373 6.26091 5.39255 6.28383 5.40131 6.30258 5.42391 6.30258 5.4427 6.30258 5.48077 6.41672 5.7038 6.44803 5.72695 6.45905 5.73506 6.49069 5.79042 6.51839 5.85005 6.54609 5.90963 6.57862 5.96273 6.59067 5.96812 6.60272 5.97347 6.63623 6.02437 6.66516 6.08119 6.73472 6.21783 6.81534 6.35803 6.83494 6.37641 6.84356 6.38452 6.89625 6.4642 6.95203 6.5535 7.00781 6.6428 7.0605 6.72253 7.06913 6.73064 7.09233 6.75239 7.15481 6.85486 7.18617 6.9225 7.20122 6.95498 7.24767 7.02014 7.28944 7.06734 7.33116 7.1145 7.36533 7.17094 7.36533 7.19278 7.36533 7.21463 7.37559 7.23248 7.38811 7.23248 7.40067 7.23248 7.43597 7.27898 7.46658 7.3358 7.49719 7.39261 7.53342 7.43911 7.54706 7.43911 7.56075 7.43911 7.57195 7.45945 7.57195 7.48434 7.57195 7.50919 7.59188 7.53717 7.61625 7.5465 7.64058 7.55587 7.6605 7.57913 7.6605 7.59825 7.6605 7.63312 7.74881 7.75725 7.845 7.85756 7.87345 7.88719 7.89666 7.92202 7.89666 7.93495 7.89666 7.94789 7.91658 7.98441 7.94086 8.01614 7.96519 8.04788 8.02481 8.12695 8.07337 8.19187 8.12194 8.25684 8.17181 8.32327 8.18423 8.33948 8.19666 8.3557 8.30644 8.50172 8.42813 8.66395 8.80008 9.15966 8.78644 9.15127 8.96597 8.99564Z" fill="#004BA6"/></g></svg>